<svg xmlns="http://www.w3.org/2000/svg" width="512" height="512" viewBox="130 70 780 820">
<g>

<path d="M 740.00 317.00 C742.63,316.86 741.52,313.47 736.20,305.24 C732.88,300.11 732.48,296.48 735.36,297.59 C736.15,297.89 737.09,297.66 737.46,297.07 C737.82,296.48 739.53,296.00 741.25,296.00 C745.43,296.00 753.10,287.89 757.33,279.00 C760.09,273.21 760.41,271.57 760.30,264.00 C760.18,254.97 760.02,254.14 754.94,235.50 C749.91,217.03 750.00,210.22 755.33,206.48 C758.47,204.28 761.00,207.04 761.00,212.67 C761.00,217.82 764.45,223.94 769.91,228.50 C771.88,230.15 775.08,233.11 777.00,235.07 C778.92,237.04 781.78,239.44 783.35,240.41 C788.17,243.40 797.05,246.00 802.43,246.00 C805.25,246.00 808.44,246.62 809.53,247.38 C812.30,249.32 826.38,252.17 825.01,250.51 C824.92,250.41 824.65,250.22 824.23,249.97 C827.62,251.70 830.22,253.11 831.37,253.91 C839.79,259.71 849.88,270.02 855.71,278.77 C857.02,280.74 858.52,283.33 860.03,286.16 C859.72,286.61 859.50,287.94 859.50,289.50 C859.50,291.79 859.97,293.00 860.87,293.00 C861.80,293.00 862.04,292.28 861.63,290.75 C861.41,289.94 861.22,288.98 861.11,288.22 C865.41,296.55 869.39,305.94 868.61,306.72 C868.32,307.02 865.70,305.11 862.79,302.50 C850.91,291.81 840.42,286.18 821.00,280.04 C805.67,275.20 794.64,270.71 790.57,267.66 L 790.46 267.58 C787.54,265.39 786.16,264.35 785.60,264.69 C785.10,264.99 785.27,266.41 785.58,269.10 L 785.60 269.22 C786.37,275.83 784.00,285.87 780.34,291.40 C775.95,298.06 771.91,301.93 760.14,310.74 C753.89,315.42 748.05,320.09 747.16,321.12 C745.75,322.77 744.49,323.27 743.47,322.65 C743.83,322.54 744.31,322.12 745.07,321.43 C747.09,319.61 747.09,319.60 744.46,318.22 C741.17,316.50 740.66,316.97 742.00,320.49 C741.58,319.42 741.08,318.45 740.00,317.00 ZM 649.00 211.37 C642.81,210.60 636.68,209.44 630.75,207.93 C630.79,207.80 630.64,207.22 630.36,206.50 C630.04,205.66 628.63,205.04 627.14,205.08 L 624.50 205.16 L 627.50 206.54 C628.79,207.13 629.96,207.65 630.46,207.86 C616.29,204.23 603.23,198.64 593.00,191.68 C585.68,186.69 572.80,175.51 568.50,170.41 C562.76,163.59 554.07,150.70 554.61,149.82 C554.87,149.41 553.21,145.79 550.94,141.79 C550.30,140.66 549.64,139.44 548.98,138.13 C552.10,143.97 555.28,148.42 558.91,152.10 C561.67,154.91 564.18,157.94 564.50,158.85 C564.81,159.76 566.36,161.40 567.95,162.50 C569.54,163.60 575.49,168.28 581.17,172.89 C586.85,177.50 594.65,182.77 598.50,184.60 C606.16,188.23 620.36,192.60 629.00,193.99 C632.03,194.48 639.45,194.76 645.50,194.61 C663.38,194.19 669.94,189.82 664.00,182.27 C662.25,180.05 661.23,176.00 662.42,176.00 C662.65,176.00 663.53,175.73 664.38,175.41 C665.30,175.05 666.85,175.81 668.21,177.27 C669.47,178.62 671.51,180.04 672.74,180.43 C674.79,181.07 675.08,180.39 674.23,179.32 C676.55,181.03 678.73,182.73 680.61,184.32 C685.99,188.84 693.22,195.97 696.69,200.16 L 696.73 200.21 C692.82,195.75 688.04,191.00 687.35,191.00 C687.13,191.00 687.64,192.05 688.48,193.33 C689.32,194.61 689.67,196.03 689.25,196.49 C688.84,196.95 689.00,197.04 689.61,196.69 C691.12,195.83 696.93,203.26 696.59,205.61 C696.42,206.78 695.20,207.74 693.41,208.13 L 690.50 208.76 L 693.62 208.88 C695.34,208.95 698.15,208.72 699.87,208.38 L 702.98 207.75 L 703.00 207.78 L 694.25 209.50 C691.79,209.98 687.62,210.42 682.75,210.78 C686.64,209.59 686.89,208.80 683.08,209.17 C681.19,209.35 679.48,210.04 679.26,210.70 C679.22,210.82 679.20,210.93 679.20,211.02 C667.79,211.73 654.07,212.00 649.00,211.37 ZM 714.60 97.40 C715.36,99.37 713.75,100.06 712.23,98.41 C711.53,97.66 710.97,96.81 710.98,96.52 C711.05,94.76 710.87,94.66 710.00,96.00 C708.58,98.20 708.86,95.89 710.34,93.22 L 711.60 90.95 L 713.97 93.47 C715.28,94.86 715.83,96.00 715.21,96.00 C714.58,96.00 714.30,96.63 714.60,97.40 ZM 670.22 176.44 L 670.17 176.42 C668.15,175.46 664.88,173.38 662.89,171.79 C660.10,169.55 658.68,169.04 656.63,169.56 C653.96,170.23 650.56,168.52 651.50,166.99 C652.04,166.13 640.26,159.82 636.32,158.59 C637.58,158.95 639.60,159.78 641.71,160.84 C644.89,162.43 648.57,164.07 649.88,164.48 C653.52,165.61 662.17,170.81 670.22,176.44 ZM 855.86 296.03 C858.79,298.47 858.91,298.47 858.73,296.00 C858.62,294.56 857.87,294.01 856.04,294.03 L 853.50 294.07 ZM 806.55 241.61 C792.93,235.59 784.25,230.81 778.40,224.53 C784.20,230.65 792.87,235.42 806.55,241.61 ZM 539.11 114.30 C536.66,107.12 535.00,100.82 535.00,97.81 C535.00,97.52 535.00,97.27 535.01,97.05 C534.95,99.64 536.64,106.66 539.11,114.30 ZM 733.33 309.27 C731.58,307.34 729.43,305.02 726.81,302.19 C719.69,294.51 716.01,289.56 712.93,283.47 C716.08,289.67 719.73,294.49 728.03,303.44 C729.95,305.51 731.76,307.50 733.33,309.27 ZM 540.41 99.05 C538.80,97.95 537.29,96.99 536.36,96.45 C537.16,96.85 538.42,97.70 540.41,99.05 Z" fill="rgb(27,99,52)"/>
<path d="M 651.29 269.40 L 652.00 269.25 C659.80,267.63 660.52,267.27 660.79,264.94 C661.00,263.15 660.20,261.62 658.04,259.70 C656.37,258.21 655.00,256.37 655.00,255.63 C655.00,253.55 668.26,248.08 680.00,245.31 C685.77,243.95 696.47,241.35 703.76,239.54 C716.31,236.42 717.25,236.32 721.25,237.70 C723.58,238.50 725.98,239.57 726.58,240.07 C727.19,240.57 727.97,240.70 728.32,240.35 C728.67,240.00 729.53,240.19 730.23,240.76 C730.93,241.34 733.86,241.83 736.75,241.85 L 742.00 241.89 L 742.00 235.38 C742.00,231.40 742.38,229.12 742.98,229.49 C744.41,230.37 748.00,228.18 748.00,226.43 C748.00,225.61 749.01,224.53 750.25,224.03 C751.97,223.34 752.09,223.11 750.75,223.06 C748.87,223.00 748.35,220.52 750.00,219.50 C750.55,219.16 751.00,217.54 751.00,215.89 C751.00,214.89 751.18,213.81 751.48,212.74 C750.70,217.28 751.86,224.22 754.94,235.50 C759.62,252.68 760.12,254.73 760.27,262.03 C760.22,262.01 760.17,262.00 760.12,262.00 C759.50,262.00 759.00,262.43 759.00,262.96 C759.00,263.49 758.10,264.76 757.00,265.78 C755.36,267.32 753.12,267.69 744.25,267.90 C727.25,268.31 724.89,268.83 720.82,273.05 L 718.15 275.83 L 717.47 271.82 C716.68,267.13 717.74,257.05 719.22,255.25 C719.78,254.56 719.96,254.00 719.61,254.00 C719.26,254.00 719.63,252.43 720.44,250.50 C721.28,248.49 721.47,247.00 720.90,247.00 C719.80,247.00 711.04,255.96 711.21,256.91 C711.27,257.23 710.80,258.77 710.16,260.32 C709.84,261.08 709.56,262.49 709.34,264.14 C709.46,261.14 709.45,259.00 709.28,259.00 C709.07,259.00 707.60,259.67 706.00,260.50 C700.58,263.30 691.67,264.98 674.07,266.52 C666.16,267.21 656.91,268.39 651.29,269.40 ZM 640.14 160.17 C641.92,161.00 643.93,162.02 645.76,163.02 C644.48,162.78 645.56,164.55 649.10,167.75 C652.00,170.36 655.35,173.40 656.55,174.50 C659.28,177.00 665.00,185.94 665.00,187.71 C665.00,191.42 647.63,194.55 635.50,193.02 C620.83,191.17 605.86,187.13 596.44,182.48 C593.75,181.15 591.60,180.17 590.38,179.69 C587.28,177.59 583.97,175.16 581.17,172.89 C575.49,168.28 569.54,163.60 567.95,162.50 C566.36,161.40 564.81,159.76 564.50,158.85 C564.18,157.94 561.67,154.91 558.91,152.10 C557.35,150.52 555.88,148.80 554.45,146.88 C555.74,148.14 556.90,148.36 558.50,148.04 C559.05,147.92 559.17,148.17 558.76,148.58 C558.35,148.99 559.02,149.82 560.26,150.44 C561.49,151.06 562.50,152.11 562.50,152.78 C562.50,153.45 562.88,153.96 563.34,153.90 C563.81,153.85 565.47,155.03 567.03,156.53 C569.47,158.86 570.39,159.15 573.57,158.55 C577.32,157.85 586.00,159.71 586.00,161.22 C586.00,161.65 586.85,162.00 587.89,162.00 C590.09,162.00 591.31,164.46 590.45,167.17 C589.89,168.91 591.61,169.45 593.00,167.96 C593.28,167.67 596.69,166.89 600.60,166.24 C606.08,165.33 608.41,165.33 610.85,166.25 C614.31,167.56 614.85,168.74 612.42,169.67 C611.14,170.16 611.09,170.44 612.17,171.12 C614.30,172.48 620.45,172.13 622.56,170.53 C623.63,169.72 625.74,169.05 627.25,169.03 C628.76,169.01 630.00,168.53 630.00,167.95 C630.00,167.37 631.73,166.13 633.84,165.18 C635.95,164.24 638.40,162.74 639.28,161.86 C640.12,161.02 640.46,160.58 640.14,160.17 ZM 756.65 155.33 C758.00,157.12 759.29,157.73 759.62,157.04 C761.98,166.28 763.99,176.58 765.52,187.51 C768.13,206.26 770.83,216.54 778.40,224.53 L 778.40 224.53 C784.25,230.81 792.93,235.59 806.55,241.61 C807.06,241.84 807.57,242.07 808.09,242.30 C808.71,242.58 809.33,242.86 809.96,243.15 C792.14,235.38 789.06,233.71 782.69,228.52 C779.56,225.98 777.00,224.19 777.00,224.57 C777.00,224.94 776.31,224.68 775.48,223.98 C774.22,222.94 774.05,222.98 774.52,224.19 C774.89,225.15 774.46,225.68 773.29,225.70 C768.94,225.78 763.51,216.99 764.29,211.11 C764.62,208.60 764.04,205.97 762.38,202.48 C759.96,197.39 757.02,184.43 756.98,178.66 C756.95,174.61 752.92,160.84 749.72,153.89 C748.35,150.92 746.51,146.02 745.62,143.00 C743.76,136.71 740.09,129.85 738.25,129.24 C737.43,128.97 737.20,129.46 737.60,130.67 C738.94,134.77 743.49,145.63 744.64,147.50 C745.32,148.60 746.35,155.35 746.93,162.50 C748.38,180.39 748.89,189.87 748.29,187.54 C747.68,185.23 744.97,180.79 743.55,179.80 C742.90,179.35 742.93,177.98 743.65,175.80 C745.21,171.09 745.19,166.19 743.61,161.00 C742.46,157.21 741.87,156.53 739.87,156.68 C734.86,157.06 732.60,155.07 727.00,145.32 C722.98,138.31 719.48,133.83 714.00,128.65 C709.88,124.75 707.44,122.33 708.58,123.28 C711.29,125.52 713.75,125.45 717.77,123.00 C719.57,121.90 722.36,121.00 723.97,121.00 C725.57,121.00 727.16,120.55 727.50,120.00 C728.57,118.26 729.74,118.90 731.77,122.33 C732.85,124.17 734.47,125.67 735.37,125.67 C736.27,125.67 736.99,125.40 736.97,125.08 C736.90,123.97 733.18,120.00 732.20,120.00 C730.94,120.00 729.81,117.12 730.57,115.88 C731.24,114.81 726.90,106.99 724.56,105.05 C723.70,104.34 723.00,103.33 723.00,102.82 C723.00,101.29 728.84,108.13 730.47,111.57 C731.29,113.32 734.00,117.50 736.48,120.87 C740.43,126.23 742.29,127.57 745.21,127.13 C745.61,127.07 745.64,127.77 745.29,128.68 C744.89,129.72 745.06,130.08 745.74,129.66 C746.34,129.29 747.00,129.49 747.20,130.10 C747.45,130.84 747.97,130.74 748.75,129.80 C749.69,128.66 749.23,127.37 746.49,123.44 C745.54,122.08 744.51,120.48 743.60,118.99 C743.73,119.16 743.85,119.32 743.98,119.48 C748.78,125.52 753.33,135.57 757.18,148.27 C752.56,134.04 750.16,129.13 748.93,131.10 C748.43,131.91 748.45,132.63 748.98,132.81 C749.48,132.99 749.64,133.77 749.34,134.56 C749.04,135.34 749.44,136.23 750.23,136.53 C751.02,136.84 751.70,137.63 751.74,138.29 C752.10,143.69 752.65,145.71 754.16,147.08 C755.24,148.05 755.69,149.46 755.35,150.76 C755.03,151.99 755.56,153.88 756.65,155.33 ZM 703.59 186.36 C703.67,186.43 703.74,186.51 703.82,186.58 C703.20,186.08 702.54,185.54 701.85,184.96 C689.78,174.72 673.25,164.73 658.59,158.52 C665.71,161.37 672.21,164.71 679.98,169.23 L 680.03 169.26 C684.86,172.06 686.52,173.03 686.76,172.76 C686.88,172.62 686.61,172.12 686.19,171.37 L 686.18 171.36 C684.60,168.53 686.09,166.01 690.57,163.97 C696.67,161.19 697.58,161.43 700.13,166.54 C702.86,172.01 705.74,174.93 704.51,170.99 L 704.49 170.93 C704.82,171.89 705.00,172.66 705.00,173.16 C705.00,174.11 705.44,175.15 705.97,175.48 C706.74,175.96 707.98,179.21 708.94,182.54 C707.07,176.50 705.00,173.87 705.00,177.55 C705.00,178.40 703.58,179.69 701.84,180.43 L 698.68 181.75 ZM 616.65 282.97 C617.39,282.90 618.74,281.88 620.58,279.96 C624.29,276.10 638.97,263.96 637.11,266.30 C635.89,267.83 635.92,267.97 637.36,267.42 C638.26,267.07 639.06,267.28 639.12,267.89 C639.19,268.50 639.32,269.56 639.40,270.25 C639.55,271.50 640.34,271.62 647.83,270.11 C638.59,272.36 621.66,279.10 618.81,281.67 C617.72,282.66 617.00,283.06 616.65,282.97 ZM 655.09 123.08 C655.42,123.19 655.74,123.29 656.07,123.40 C645.08,119.79 631.29,117.91 610.50,116.53 C633.68,118.07 644.55,119.66 655.09,123.08 ZM 695.93 154.44 C692.87,149.95 689.35,145.57 685.80,141.93 C688.25,144.33 690.50,146.86 692.50,149.48 C693.60,150.92 694.77,152.62 695.93,154.44 ZM 709.03 270.68 C709.15,273.49 709.72,276.27 710.81,279.18 C709.26,275.84 708.93,274.17 709.03,270.68 ZM 597.99 184.35 C603.72,186.92 611.09,189.56 618.05,191.50 C610.96,189.55 603.39,186.92 598.50,184.60 C598.34,184.52 598.16,184.44 597.99,184.35 ZM 626.67 267.52 C624.09,270.48 621.23,274.09 619.12,276.99 C619.24,276.82 619.36,276.64 619.49,276.46 C621.57,273.43 623.99,270.43 626.67,267.52 ZM 716.19 289.10 C719.09,293.32 722.97,297.99 727.99,303.40 C722.33,297.30 718.84,293.11 716.19,289.10 ZM 740.73 113.66 C739.57,111.42 738.13,109.00 736.47,106.50 C738.56,109.53 740.12,112.12 740.73,113.66 ZM 821.34 250.74 C817.31,250.13 811.24,248.58 809.53,247.38 C810.61,248.14 814.77,249.43 818.77,250.25 C819.74,250.45 820.60,250.62 821.34,250.74 ZM 642.45 253.52 C647.76,249.67 653.38,246.29 659.04,243.65 C653.67,246.16 647.87,249.64 642.45,253.52 ZM 655.58 169.70 C654.16,169.87 653.15,169.62 652.39,168.93 C653.21,169.42 654.40,169.75 655.58,169.70 ZM 754.68 206.97 C755.07,206.59 755.48,206.28 755.88,206.06 C756.54,205.71 757.17,205.62 757.75,205.75 C757.02,205.64 756.20,205.87 755.33,206.48 C755.11,206.64 754.89,206.80 754.68,206.97 ZM 662.89 171.79 C664.87,173.38 668.15,175.46 670.17,176.42 C668.15,175.46 664.90,173.39 662.94,171.83 C660.43,169.82 659.03,169.22 657.07,169.46 C658.89,169.13 660.31,169.72 662.89,171.79 ZM 718.75 85.35 C713.33,79.89 712.41,79.60 709.12,79.73 C712.42,79.60 713.32,79.84 718.75,85.35 ZM 636.14 151.44 C631.61,150.30 626.57,149.08 622.00,148.04 C627.25,149.24 631.92,150.35 636.14,151.44 ZM 824.26 249.99 C824.67,250.23 824.93,250.41 825.01,250.51 C825.14,250.66 825.13,250.78 825.03,250.85 C825.09,250.68 824.84,250.39 824.26,249.99 ZM 762.59 219.21 C764.12,222.50 766.68,225.81 769.91,228.50 C766.65,225.78 764.11,222.50 762.59,219.21 ZM 635.18 158.41 C635.13,158.43 635.09,158.44 635.05,158.47 C634.62,158.74 633.21,158.05 631.94,156.95 C633.21,158.05 634.63,158.73 635.09,158.44 C635.11,158.43 635.14,158.42 635.18,158.41 ZM 651.37 167.31 C651.36,167.17 651.39,167.07 651.49,167.02 C651.43,167.12 651.39,167.21 651.37,167.31 Z" fill="rgb(69,131,56)"/>
<path d="M 754.68 206.97 C752.99,208.36 751.92,210.17 751.48,212.74 C751.18,213.81 751.00,214.89 751.00,215.89 C751.00,217.54 750.55,219.16 750.00,219.50 C749.77,219.64 749.58,219.82 749.43,220.01 C749.46,219.78 749.49,219.52 749.53,219.25 C749.84,217.19 749.69,208.96 749.20,200.96 C748.69,192.51 748.08,187.56 746.92,184.39 C747.55,185.54 748.06,186.69 748.29,187.54 C748.89,189.87 748.38,180.39 746.93,162.50 C746.35,155.35 745.32,148.60 744.64,147.50 C743.49,145.63 738.94,134.77 737.60,130.67 C737.20,129.46 737.43,128.97 738.25,129.24 C740.09,129.85 743.76,136.71 745.62,143.00 C746.51,146.02 748.35,150.92 749.72,153.89 C752.92,160.84 756.95,174.61 756.98,178.66 C757.02,184.43 759.96,197.39 762.38,202.48 C764.04,205.97 764.62,208.60 764.29,211.11 C763.51,216.99 768.94,225.78 773.29,225.70 C774.46,225.68 774.89,225.15 774.52,224.19 C774.05,222.98 774.22,222.94 775.48,223.98 C776.31,224.68 777.00,224.94 777.00,224.57 C777.00,224.19 779.56,225.98 782.69,228.52 C789.06,233.71 792.14,235.38 809.96,243.15 C815.11,245.49 820.22,247.94 824.23,249.97 L 824.26 249.99 C824.84,250.39 825.09,250.68 825.03,250.85 C824.68,251.11 823.23,251.03 821.34,250.74 C820.60,250.62 819.74,250.45 818.77,250.25 C814.77,249.43 810.61,248.14 809.53,247.38 C808.44,246.62 805.25,246.00 802.43,246.00 C797.05,246.00 788.17,243.40 783.35,240.41 C781.78,239.44 778.92,237.04 777.00,235.07 C775.08,233.11 771.88,230.15 769.91,228.50 C766.68,225.81 764.12,222.50 762.59,219.21 C761.56,216.98 761.00,214.75 761.00,212.67 C761.00,208.59 759.67,206.02 757.75,205.75 C757.17,205.62 756.54,205.71 755.88,206.06 C755.48,206.28 755.07,206.59 754.68,206.97 ZM 741.24 314.71 C740.30,311.77 736.43,305.30 731.12,298.00 C727.73,293.33 723.27,286.12 721.22,282.00 C719.82,279.18 718.95,277.32 718.41,275.56 L 720.82 273.05 C724.89,268.83 727.25,268.31 744.25,267.90 C753.12,267.69 755.36,267.32 757.00,265.78 C758.10,264.76 759.00,263.49 759.00,262.96 C759.00,262.43 759.50,262.00 760.12,262.00 C760.17,262.00 760.22,262.01 760.27,262.03 C760.28,262.64 760.29,263.30 760.30,264.00 C760.41,271.57 760.09,273.21 757.33,279.00 C753.10,287.89 745.43,296.00 741.25,296.00 C739.53,296.00 737.82,296.48 737.46,297.07 C737.09,297.66 736.15,297.89 735.36,297.59 C732.48,296.48 732.88,300.11 736.20,305.24 C739.14,309.78 740.79,312.85 741.24,314.71 ZM 685.56 110.83 C686.65,112.04 689.13,111.21 694.31,108.75 C701.98,105.11 705.46,101.76 709.58,94.05 L 711.75 89.99 L 720.30 99.07 C721.52,100.37 722.72,101.69 723.85,102.99 C723.33,102.56 723.00,102.45 723.00,102.82 C723.00,103.33 723.70,104.34 724.56,105.05 C726.90,106.99 731.24,114.81 730.57,115.88 C729.81,117.12 730.94,120.00 732.20,120.00 C733.18,120.00 736.90,123.97 736.97,125.08 C736.99,125.40 736.27,125.67 735.37,125.67 C734.47,125.67 732.85,124.17 731.77,122.33 C729.74,118.90 728.57,118.26 727.50,120.00 C727.16,120.55 725.57,121.00 723.97,121.00 C722.36,121.00 719.57,121.90 717.77,123.00 C713.75,125.45 711.29,125.52 708.58,123.28 C707.44,122.33 709.88,124.75 714.00,128.65 C714.36,128.99 714.72,129.33 715.07,129.67 C706.46,121.66 693.19,112.44 690.84,113.22 C690.46,113.35 690.91,113.97 691.89,114.82 C689.48,113.15 687.57,112.00 687.01,112.00 C686.42,112.00 685.93,111.57 685.56,110.83 ZM 597.99 184.35 C596.04,183.37 593.31,181.68 590.38,179.69 C591.60,180.17 593.75,181.15 596.44,182.48 C605.86,187.13 620.83,191.17 635.50,193.02 C647.63,194.55 665.00,191.42 665.00,187.71 C665.00,185.94 659.28,177.00 656.55,174.50 C655.35,173.40 652.00,170.36 649.10,167.75 C645.56,164.55 644.48,162.78 645.76,163.02 C649.05,164.83 651.77,166.57 651.50,166.99 C651.50,167.00 651.49,167.01 651.49,167.02 C651.39,167.07 651.36,167.17 651.37,167.31 C651.23,167.90 651.66,168.48 652.39,168.93 C653.15,169.62 654.16,169.87 655.58,169.70 C655.93,169.69 656.29,169.64 656.63,169.56 C656.78,169.52 656.93,169.49 657.07,169.46 C659.03,169.22 660.43,169.82 662.94,171.83 C664.86,173.37 668.03,175.38 670.06,176.36 C670.10,176.38 670.13,176.40 670.17,176.42 L 670.17 176.42 L 670.22 176.44 C671.58,177.39 672.93,178.36 674.23,179.32 C675.08,180.39 674.79,181.07 672.74,180.43 C671.51,180.04 669.47,178.62 668.21,177.27 C666.85,175.81 665.30,175.05 664.38,175.41 C663.53,175.73 662.65,176.00 662.42,176.00 C661.23,176.00 662.25,180.05 664.00,182.27 C669.94,189.82 663.38,194.19 645.50,194.61 C639.45,194.76 632.03,194.48 629.00,193.99 C625.88,193.49 622.04,192.60 618.05,191.50 C611.09,189.56 603.72,186.92 597.99,184.35 ZM 651.29 269.40 C650.05,269.62 648.99,269.83 648.16,270.03 C648.05,270.06 647.94,270.08 647.83,270.11 C640.34,271.62 639.55,271.50 639.40,270.25 C639.32,269.56 639.19,268.50 639.12,267.89 C639.06,267.28 638.26,267.07 637.36,267.42 C635.92,267.97 635.89,267.83 637.11,266.30 C637.23,266.15 637.28,266.06 637.27,266.03 C643.55,261.54 650.35,257.27 656.59,253.95 C655.57,254.62 655.00,255.19 655.00,255.63 C655.00,256.37 656.37,258.21 658.04,259.70 C660.20,261.62 661.00,263.15 660.79,264.94 C660.52,267.27 659.80,267.63 652.00,269.25 ZM 696.73 200.21 L 702.98 207.75 L 699.87 208.38 C698.15,208.72 695.34,208.95 693.62,208.88 L 690.50 208.76 L 693.41 208.13 C695.20,207.74 696.42,206.78 696.59,205.61 C696.93,203.26 691.12,195.83 689.61,196.69 C689.00,197.04 688.84,196.95 689.25,196.49 C689.67,196.03 689.32,194.61 688.48,193.33 C687.64,192.05 687.13,191.00 687.35,191.00 C688.04,191.00 692.82,195.75 696.73,200.21 ZM 714.60 97.40 C714.30,96.63 714.58,96.00 715.21,96.00 C715.83,96.00 715.28,94.86 713.97,93.47 L 711.60 90.95 L 710.34 93.22 C708.86,95.89 708.58,98.20 710.00,96.00 C710.87,94.66 711.05,94.76 710.98,96.52 C710.97,96.81 711.53,97.66 712.23,98.41 C713.75,100.06 715.36,99.37 714.60,97.40 ZM 742.02 320.56 L 742.00 320.49 C740.66,316.97 741.17,316.50 744.46,318.22 C747.09,319.60 747.09,319.61 745.07,321.43 C744.31,322.12 743.83,322.54 743.47,322.65 C742.91,322.30 742.43,321.61 742.03,320.58 ZM 860.03 286.16 C860.39,286.83 860.75,287.52 861.11,288.22 C861.22,288.98 861.41,289.94 861.63,290.75 C862.04,292.28 861.80,293.00 860.87,293.00 C859.97,293.00 859.50,291.79 859.50,289.50 C859.50,287.94 859.72,286.61 860.03,286.16 ZM 855.86 296.03 L 853.50 294.07 L 856.04 294.03 C857.87,294.01 858.62,294.56 858.73,296.00 C858.91,298.47 858.79,298.47 855.86,296.03 ZM 682.75 210.78 C681.60,210.86 680.41,210.95 679.20,211.02 C679.20,210.93 679.22,210.82 679.26,210.70 C679.48,210.04 681.19,209.35 683.08,209.17 C686.89,208.80 686.64,209.59 682.75,210.78 ZM 630.75 207.93 C629.96,207.65 628.79,207.13 627.50,206.54 L 624.50 205.16 L 627.14 205.08 C628.63,205.04 630.04,205.66 630.36,206.50 C630.64,207.22 630.79,207.80 630.75,207.93 ZM 709.74 131.00 C714.73,136.90 719.25,143.56 722.48,149.97 C719.88,144.79 714.60,137.06 709.74,131.00 ZM 696.36 84.95 C691.29,89.23 687.06,95.70 685.48,101.72 C687.14,95.09 691.25,89.02 696.36,84.95 ZM 663.45 250.58 C664.60,250.08 665.71,249.62 666.77,249.22 C671.02,247.62 678.33,245.49 683.00,244.49 C684.87,244.09 687.53,243.48 690.49,242.79 C686.48,243.76 682.70,244.67 680.00,245.31 C674.27,246.66 668.18,248.66 663.45,250.58 ZM 631.74 270.14 C627.69,273.46 622.56,277.90 620.58,279.96 C623.53,276.89 627.40,273.52 631.74,270.14 ZM 717.84 259.81 C718.08,257.62 718.44,256.17 718.93,255.58 C719.65,254.71 719.96,254.00 719.61,254.00 C719.96,254.00 719.78,254.56 719.22,255.25 C718.68,255.90 718.20,257.64 717.84,259.81 ZM 740.73 113.66 C740.90,114.12 741.00,114.49 741.00,114.75 C741.00,115.24 742.14,117.09 743.60,118.99 C743.64,119.05 743.67,119.11 743.71,119.17 C743.57,118.99 743.44,118.83 743.32,118.67 C742.04,117.12 741.00,115.38 741.00,114.81 C741.00,114.51 740.88,114.07 740.65,113.51 C740.67,113.56 740.70,113.61 740.73,113.66 ZM 722.35 138.04 C723.59,139.74 724.78,141.57 726.00,143.60 C724.83,141.70 723.56,139.76 722.35,138.04 ZM 748.81 129.73 C748.79,129.75 748.77,129.77 748.75,129.80 C748.31,130.33 747.95,130.59 747.68,130.59 C747.89,130.48 748.17,130.28 748.50,130.00 C748.62,129.90 748.72,129.81 748.81,129.73 ZM 698.89 120.05 C697.70,119.10 696.47,118.15 695.26,117.25 C696.46,118.09 697.67,119.03 698.89,120.05 ZM 746.91 129.67 C746.61,129.42 746.16,129.40 745.74,129.66 C745.50,129.81 745.33,129.86 745.22,129.82 C745.34,129.85 745.55,129.78 745.83,129.61 C746.32,129.30 746.74,129.35 746.91,129.67 ZM 749.51 222.52 C749.80,222.83 750.22,223.04 750.75,223.06 C750.96,223.07 751.13,223.08 751.27,223.10 C751.13,223.08 750.95,223.07 750.74,223.06 C750.11,223.04 749.72,222.91 749.51,222.52 ZM 712.95 237.38 C717.24,236.51 718.54,236.76 721.25,237.70 C718.58,236.78 717.27,236.52 712.95,237.38 ZM 730.30 111.23 C730.34,111.31 730.38,111.38 730.41,111.45 C731.27,113.26 734.00,117.50 736.48,120.87 C734.00,117.50 731.29,113.32 730.47,111.57 C730.42,111.46 730.36,111.35 730.30,111.23 ZM 705.33 80.30 C706.59,79.98 707.85,79.78 709.12,79.73 C708.03,79.77 706.67,79.99 705.33,80.30 ZM 739.99 316.98 C740.37,316.98 740.79,316.83 741.11,316.53 C740.88,316.82 740.51,316.97 740.00,317.00 ZM 684.87 105.19 C684.86,105.42 684.84,105.65 684.83,105.88 C684.82,106.16 684.81,106.43 684.81,106.69 C684.81,106.21 684.83,105.71 684.87,105.19 ZM 736.56 106.64 C736.01,105.84 735.43,105.02 734.82,104.17 C735.40,104.97 735.95,105.75 736.47,106.50 Z" fill="rgb(48,111,50)"/>
<path d="M 636.14 151.44 C635.49,151.27 634.83,151.10 634.15,150.93 C640.00,152.18 642.23,152.18 639.00,150.77 C637.62,150.17 635.19,149.08 633.60,148.34 C630.72,147.01 621.08,146.41 622.30,147.63 C622.54,147.88 624.37,148.48 626.81,149.15 C625.27,148.79 623.66,148.42 622.00,148.04 C612.38,145.85 602.93,143.59 601.01,143.03 C599.09,142.46 596.61,142.02 595.51,142.04 C593.85,142.07 594.00,142.35 596.37,143.64 C600.25,145.74 617.13,152.15 619.00,152.24 C619.83,152.27 620.79,152.74 621.14,153.28 C621.49,153.81 622.95,154.25 624.39,154.25 C625.82,154.25 627.00,154.63 627.00,155.09 C627.00,155.56 627.59,155.71 628.31,155.44 C629.03,155.16 630.66,155.84 631.94,156.95 L 631.94 156.95 C633.21,158.05 634.62,158.74 635.05,158.47 C635.09,158.44 635.13,158.43 635.18,158.41 C635.39,158.37 635.78,158.44 636.32,158.59 C637.25,158.88 638.61,159.45 640.14,160.17 C640.46,160.58 640.12,161.02 639.28,161.86 C638.40,162.74 635.95,164.24 633.84,165.18 C631.73,166.13 630.00,167.37 630.00,167.95 C630.00,168.53 628.76,169.01 627.25,169.03 C625.74,169.05 623.63,169.72 622.56,170.53 C620.45,172.13 614.30,172.48 612.17,171.12 C611.09,170.44 611.14,170.16 612.42,169.67 C614.85,168.74 614.31,167.56 610.85,166.25 C608.41,165.33 606.08,165.33 600.60,166.24 C596.69,166.89 593.28,167.67 593.00,167.96 C591.61,169.45 589.89,168.91 590.45,167.17 C591.31,164.46 590.09,162.00 587.89,162.00 C586.85,162.00 586.00,161.65 586.00,161.22 C586.00,159.71 577.32,157.85 573.57,158.55 C570.39,159.15 569.47,158.86 567.03,156.53 C565.47,155.03 563.81,153.85 563.34,153.90 C562.88,153.96 562.50,153.45 562.50,152.78 C562.50,152.11 561.49,151.06 560.26,150.44 C559.02,149.82 558.35,148.99 558.76,148.58 C559.17,148.17 559.05,147.92 558.50,148.04 C556.90,148.36 555.74,148.14 554.45,146.88 C552.56,144.34 550.76,141.46 548.98,138.13 C545.71,131.67 542.24,123.25 539.57,115.63 L 540.00 110.50 C540.37,106.00 540.88,104.52 542.00,104.58 C544.47,104.72 548.49,106.68 549.97,108.47 C553.60,112.84 573.85,120.44 588.50,122.92 C594.55,123.94 605.99,125.08 613.92,125.44 C644.96,126.87 661.55,132.39 684.53,148.93 C688.30,151.65 699.00,163.12 699.00,164.44 C699.00,164.44 699.00,164.45 699.00,164.45 C697.15,161.43 695.70,161.63 690.57,163.97 C686.09,166.01 684.60,168.53 686.18,171.36 L 686.19 171.37 C686.61,172.12 686.88,172.62 686.76,172.76 C686.52,173.03 684.86,172.06 680.03,169.26 L 679.98 169.23 C672.21,164.71 665.71,161.37 658.59,158.52 C654.91,156.97 651.35,155.65 648.00,154.62 C645.55,153.87 641.15,152.70 636.14,151.44 ZM 722.35 138.04 C723.56,139.76 724.83,141.70 726.00,143.60 C726.33,144.16 726.66,144.73 727.00,145.32 C732.60,155.07 734.86,157.06 739.87,156.68 C741.87,156.53 742.46,157.21 743.61,161.00 C745.19,166.19 745.21,171.09 743.65,175.80 C742.93,177.98 742.90,179.35 743.55,179.80 C744.44,180.43 745.85,182.42 746.92,184.39 C748.08,187.56 748.69,192.51 749.20,200.96 C749.69,208.96 749.84,217.19 749.53,219.25 C749.49,219.52 749.46,219.78 749.43,220.01 C748.82,220.79 748.90,221.88 749.51,222.52 C749.72,222.91 750.11,223.04 750.74,223.06 C750.95,223.07 751.13,223.08 751.27,223.10 L 751.27 223.10 C752.02,223.19 751.71,223.45 750.25,224.03 C749.01,224.53 748.00,225.61 748.00,226.43 C748.00,228.18 744.41,230.37 742.98,229.49 C742.38,229.12 742.00,231.40 742.00,235.38 L 742.00 241.89 L 736.75 241.85 C733.86,241.83 730.93,241.34 730.23,240.76 C729.53,240.19 728.67,240.00 728.32,240.35 C727.97,240.70 727.19,240.57 726.58,240.07 C725.98,239.57 723.58,238.50 721.25,237.70 C721.00,237.61 720.77,237.53 720.54,237.46 C718.31,236.74 716.87,236.60 712.96,237.38 L 712.95 237.38 C710.81,237.80 707.92,238.50 703.76,239.54 C703.20,239.68 702.62,239.82 702.02,239.97 C726.13,233.63 731.22,229.16 737.18,216.42 C742.37,205.34 742.99,194.12 739.38,176.69 C737.11,165.75 734.86,160.16 730.89,155.63 C727.92,152.22 722.83,143.96 722.51,142.00 C721.80,137.74 714.33,129.02 706.42,122.39 C709.44,124.72 712.47,127.25 715.07,129.67 C717.90,132.43 720.19,135.05 722.35,138.04 ZM 718.75 85.35 C719.78,86.40 720.97,87.63 722.38,89.08 C723.90,90.66 725.51,92.46 727.12,94.36 C724.23,91.45 722.43,90.00 721.71,90.00 C721.07,90.00 721.56,90.70 722.78,91.56 C724.00,92.41 725.00,93.73 725.00,94.48 C725.00,95.24 726.46,97.01 728.25,98.42 C730.31,100.04 731.82,100.89 732.40,100.92 C733.24,102.02 734.05,103.11 734.82,104.17 L 734.83 104.19 C735.44,105.03 736.02,105.85 736.56,106.64 L 736.56 106.64 C738.14,109.04 739.53,111.36 740.65,113.51 C740.88,114.07 741.00,114.51 741.00,114.81 C741.00,115.38 742.04,117.12 743.32,118.67 C743.44,118.83 743.57,118.99 743.71,119.17 C744.59,120.60 745.58,122.13 746.49,123.44 C749.18,127.29 749.67,128.61 748.81,129.73 C748.72,129.81 748.62,129.90 748.50,130.00 C748.17,130.28 747.89,130.48 747.68,130.59 C747.47,130.59 747.31,130.43 747.20,130.10 C747.14,129.92 747.04,129.77 746.91,129.67 C746.74,129.35 746.32,129.30 745.83,129.61 C745.55,129.78 745.34,129.85 745.22,129.82 C745.01,129.75 745.03,129.36 745.29,128.68 C745.64,127.77 745.61,127.07 745.21,127.13 C742.29,127.57 740.43,126.23 736.48,120.87 C734.00,117.50 731.27,113.26 730.41,111.45 C730.38,111.38 730.34,111.31 730.30,111.23 C728.91,108.56 725.46,104.29 723.85,102.99 C722.72,101.69 721.52,100.37 720.30,99.07 L 711.75 89.99 L 710.55 92.24 C710.90,91.34 711.19,90.42 711.42,89.51 C712.32,85.88 713.80,84.82 716.20,86.10 C718.67,87.43 718.45,86.07 715.62,82.53 C715.39,82.25 715.17,81.99 714.96,81.75 C715.95,82.59 717.16,83.75 718.75,85.35 ZM 703.59 186.36 L 698.68 181.75 L 701.84 180.43 C703.58,179.69 705.00,178.40 705.00,177.55 C705.00,173.87 707.07,176.50 708.94,182.54 L 708.94 182.54 C709.96,186.09 710.66,189.74 710.13,190.27 C709.66,190.74 707.25,189.32 703.82,186.58 C703.74,186.51 703.67,186.43 703.59,186.36 ZM 756.65 155.33 C755.56,153.88 755.03,151.99 755.35,150.76 C755.69,149.46 755.24,148.05 754.16,147.08 C752.65,145.71 752.10,143.69 751.74,138.29 C751.70,137.63 751.02,136.84 750.23,136.53 C749.44,136.23 749.04,135.34 749.34,134.56 C749.64,133.77 749.48,132.99 748.98,132.81 C748.45,132.63 748.43,131.91 748.93,131.10 C750.16,129.13 752.56,134.04 757.18,148.27 C758.03,151.07 758.84,154.00 759.62,157.04 C759.29,157.73 758.00,157.12 756.65,155.33 ZM 701.57 169.11 C705.57,175.45 705.62,172.90 701.72,164.61 C702.95,167.06 703.93,169.28 704.49,170.93 L 704.51 170.99 C705.61,174.52 703.41,172.54 700.98,168.16 C701.17,168.47 701.37,168.79 701.57,169.11 ZM 663.45 250.58 C661.98,251.18 660.64,251.77 659.49,252.34 C661.52,251.31 663.45,250.43 665.21,249.73 C667.33,248.88 670.73,247.78 674.22,246.78 C671.45,247.59 668.78,248.47 666.77,249.22 C665.71,249.62 664.60,250.08 663.45,250.58 ZM 690.71 113.42 C690.70,113.32 690.74,113.25 690.84,113.22 C691.68,112.94 693.93,113.95 696.86,115.72 C693.25,113.76 690.96,113.01 690.71,113.42 ZM 658.15 253.02 C657.55,253.34 657.03,253.65 656.59,253.95 C652.24,256.26 647.62,259.04 643.09,262.03 C648.22,258.61 653.44,255.47 658.15,253.02 ZM 536.38 104.87 C535.49,101.32 534.98,98.50 535.01,97.05 C535.03,96.86 535.05,96.70 535.08,96.56 C534.99,97.81 535.50,101.01 536.38,104.87 ZM 705.31 100.70 C703.52,102.91 701.55,104.62 699.03,106.20 C701.36,104.66 703.48,102.79 705.31,100.70 ZM 682.11 138.54 C683.38,139.64 684.61,140.77 685.80,141.93 C686.35,142.49 686.89,143.07 687.44,143.66 C685.74,141.87 683.97,140.16 682.11,138.54 ZM 540.41 99.05 C538.62,97.83 536.92,96.78 536.00,96.29 C536.11,96.33 536.23,96.39 536.36,96.45 C537.29,96.99 538.80,97.95 540.41,99.05 ZM 685.72 110.99 C685.66,110.94 685.61,110.88 685.56,110.83 C685.50,110.71 685.44,110.58 685.39,110.45 C685.49,110.65 685.60,110.83 685.72,110.99 ZM 684.87 105.19 C684.93,104.59 685.01,103.98 685.13,103.35 C684.98,104.15 684.88,105.02 684.83,105.86 C684.84,105.64 684.86,105.42 684.87,105.19 Z" fill="rgb(85,144,60)"/>
<path d="M 409.00 865.99 C399.72,865.14 379.09,862.36 372.45,861.05 C364.03,859.40 346.32,855.24 342.83,854.10 C318.18,846.06 311.73,843.79 307.34,841.63 C304.51,840.23 300.91,838.77 299.34,838.38 C297.78,837.99 291.10,834.77 284.50,831.21 C277.90,827.66 270.70,823.86 268.50,822.77 C264.72,820.89 260.45,818.20 244.04,807.31 C240.19,804.76 235.92,801.51 234.55,800.09 C233.19,798.66 229.98,795.92 227.42,794.00 C214.67,784.40 192.02,760.40 184.48,748.50 C182.38,745.20 180.37,742.28 180.00,742.00 C179.45,741.59 176.08,736.16 170.08,726.00 C165.74,718.65 157.70,698.25 155.51,689.00 C154.79,685.97 153.54,681.03 152.72,678.00 C148.97,664.02 148.03,632.74 150.84,616.00 C152.65,605.27 156.13,590.46 157.43,588.00 C158.15,586.62 159.53,583.03 160.51,580.00 C163.41,570.99 167.82,562.91 179.36,545.46 C184.21,538.12 192.62,529.27 199.89,523.84 C202.97,521.54 206.19,518.94 207.03,518.08 C211.60,513.37 219.23,507.98 224.04,506.04 C227.04,504.84 230.85,503.23 232.50,502.48 C241.69,498.30 261.21,492.83 270.00,491.98 C285.06,490.51 290.43,490.72 293.10,492.88 C295.15,494.54 295.29,495.08 294.25,497.35 C293.58,498.82 291.89,500.24 290.35,500.63 C284.50,502.10 270.03,513.05 261.27,522.64 C257.55,526.71 254.32,530.60 254.10,531.27 C253.88,531.95 252.49,533.91 250.99,535.62 C247.05,540.17 239.20,556.63 238.03,562.83 C237.48,565.76 236.82,568.48 236.58,568.88 C235.41,570.76 232.83,589.28 232.87,595.50 C232.97,612.71 240.74,638.08 250.24,652.25 C254.17,658.10 273.67,678.00 275.48,678.00 C276.12,678.00 277.62,679.12 278.81,680.50 C280.01,681.88 281.51,683.00 282.14,683.00 C282.77,683.00 285.67,684.58 288.58,686.51 C296.92,692.05 317.96,698.65 334.50,700.92 C342.52,702.02 373.86,700.49 382.00,698.60 C385.58,697.77 391.32,696.43 394.76,695.64 C398.20,694.84 403.37,693.28 406.26,692.17 C409.14,691.07 413.35,689.68 415.61,689.08 C417.87,688.49 421.28,686.77 423.19,685.25 C425.09,683.74 428.87,681.54 431.58,680.36 C445.77,674.19 449.64,671.76 457.95,663.75 C460.09,661.69 462.23,660.00 462.71,660.00 C464.44,660.00 482.82,642.22 489.25,634.33 C491.86,631.12 496.42,625.53 499.39,621.90 C502.36,618.28 505.48,613.97 506.33,612.33 C507.18,610.69 508.64,608.71 509.59,607.93 C510.53,607.14 512.55,603.74 514.06,600.37 C515.57,596.99 517.27,593.95 517.83,593.61 C518.39,593.26 519.62,590.62 520.57,587.74 C521.52,584.86 523.50,580.70 524.97,578.50 C526.44,576.30 528.79,571.58 530.19,568.00 C531.59,564.42 533.74,559.03 534.96,556.00 C536.18,552.97 537.79,548.47 538.53,546.00 C539.27,543.53 540.55,539.47 541.39,537.00 C542.22,534.53 543.44,530.47 544.09,528.00 C544.74,525.53 546.34,520.72 547.64,517.33 C548.94,513.94 550.00,510.41 550.00,509.49 C550.00,507.97 551.06,502.16 556.57,473.50 C557.52,468.55 558.63,462.25 559.03,459.50 C565.81,412.94 570.53,385.73 573.42,376.50 C577.50,363.43 579.00,357.88 579.00,355.85 C579.00,352.92 585.89,338.21 590.19,331.96 C592.29,328.91 594.00,326.08 594.00,325.68 C594.00,324.37 600.91,314.58 604.24,311.17 C608.95,306.34 618.95,298.00 620.02,298.00 C620.52,298.00 624.66,295.62 629.22,292.72 C633.77,289.82 638.72,286.91 640.22,286.25 C645.89,283.79 654.88,282.12 665.50,281.57 C671.55,281.25 678.30,280.55 680.50,280.02 C686.11,278.66 693.32,278.77 695.22,280.25 C696.10,280.94 697.80,283.98 698.99,287.00 C700.19,290.02 701.47,293.00 701.83,293.62 C703.71,296.75 715.83,311.45 722.22,318.33 C729.71,326.38 735.48,334.97 736.62,339.77 C738.28,346.71 740.42,346.56 748.25,338.91 C751.69,335.56 757.42,330.76 761.00,328.23 C764.57,325.71 770.16,321.37 773.41,318.59 C776.66,315.80 780.23,313.07 781.34,312.51 C782.45,311.96 785.29,308.58 787.63,305.00 C797.11,290.58 797.16,290.53 802.00,290.18 C804.79,289.98 808.12,290.58 810.97,291.80 C813.46,292.86 817.08,294.29 819.00,294.98 C834.62,300.54 847.11,307.28 853.44,313.53 C865.53,325.50 874.78,340.02 878.59,353.00 C883.86,370.98 885.08,377.31 886.19,392.50 C888.00,417.24 885.38,456.53 880.65,475.51 C879.83,478.80 878.41,485.74 877.51,490.93 C876.61,496.12 875.02,503.09 873.98,506.43 C872.95,509.77 870.97,516.33 869.58,521.00 C867.29,528.75 861.97,544.18 855.78,561.00 C850.01,576.69 825.03,626.29 817.51,636.99 C815.58,639.73 814.00,642.38 814.00,642.87 C814.00,643.36 813.33,644.31 812.51,644.99 C811.68,645.68 809.59,648.77 807.84,651.87 C806.10,654.97 802.59,660.20 800.04,663.50 C797.50,666.80 794.07,671.53 792.41,674.00 C788.93,679.20 770.62,701.63 767.96,703.94 C766.98,704.80 762.46,709.78 757.91,715.00 C750.14,723.94 732.13,741.98 730.97,741.99 C730.68,742.00 726.44,745.87 721.55,750.59 C716.66,755.32 711.23,760.16 709.47,761.34 C707.71,762.53 702.95,766.09 698.89,769.27 C689.15,776.87 675.26,787.24 673.15,788.50 C667.21,792.03 662.71,794.98 657.00,799.05 C637.67,812.86 578.14,840.58 553.00,847.48 C548.33,848.77 542.03,850.72 539.00,851.81 C535.97,852.91 529.00,854.79 523.50,856.00 C518.00,857.20 511.25,858.79 508.50,859.54 C503.52,860.89 491.06,862.58 464.50,865.49 C450.35,867.04 423.22,867.28 409.00,865.99 ZM 409.50 863.43 C410.60,863.60 421.40,863.78 433.50,863.84 C483.05,864.11 525.00,856.06 577.00,836.31 C595.15,829.41 629.29,812.69 646.86,802.09 C710.49,763.69 764.90,711.74 805.17,650.94 C816.92,633.20 819.11,629.61 828.36,612.83 C853.26,567.67 870.51,519.06 879.39,469.00 C886.64,428.17 885.90,386.34 877.41,357.60 C870.08,332.76 854.01,313.01 833.24,303.32 C825.42,299.67 803.55,292.04 800.85,292.01 C799.87,292.01 797.87,294.34 795.96,297.73 C790.19,307.94 783.54,314.66 765.27,328.69 C758.02,334.26 748.27,343.46 743.82,348.93 L 740.22 353.36 L 735.02 342.93 C729.73,332.32 726.34,327.09 722.41,323.50 C721.21,322.40 715.52,315.86 709.78,308.97 C701.69,299.26 698.68,294.80 696.42,289.14 L 693.50 281.85 L 689.00 282.44 C686.53,282.77 679.10,283.49 672.50,284.04 C653.24,285.65 645.91,287.51 632.75,294.10 C614.36,303.32 600.35,318.26 589.23,340.50 C579.41,360.15 573.48,384.79 565.53,439.00 C559.64,479.16 553.63,508.17 545.85,534.00 C532.37,578.78 510.94,617.27 483.58,645.85 C477.37,652.33 458.61,669.00 457.53,669.00 C457.19,669.00 452.92,671.69 448.04,674.98 C428.20,688.31 404.16,697.77 377.58,702.67 C365.06,704.99 338.68,705.01 326.28,702.72 C316.14,700.84 300.22,695.67 292.48,691.73 C284.76,687.81 270.06,677.82 264.21,672.53 C247.85,657.72 236.42,636.63 231.94,612.96 C230.29,604.25 230.27,585.20 231.90,576.00 C236.34,550.90 249.52,527.44 267.58,512.46 C276.05,505.43 290.56,496.00 292.89,496.00 C293.50,496.00 294.00,495.48 294.00,494.84 C294.00,493.06 268.21,494.57 258.50,496.92 C211.91,508.20 175.79,541.52 160.67,587.19 C148.58,623.70 148.38,659.65 160.05,695.55 C176.11,744.91 215.76,789.56 272.07,821.68 C308.82,842.65 354.85,857.55 396.50,861.97 C402.55,862.61 408.40,863.27 409.50,863.43 ZM 333.79 674.95 C319.97,673.03 297.89,664.57 291.71,658.84 C289.95,657.20 287.15,655.16 285.50,654.31 C279.60,651.28 273.88,644.22 265.75,629.97 C257.85,616.10 255.17,594.11 259.13,575.50 C260.97,566.85 266.13,553.67 269.38,549.32 C279.26,536.11 281.16,534.00 283.17,534.00 C286.22,534.00 287.93,536.85 287.97,542.01 C287.99,544.78 288.92,548.25 290.38,551.01 C291.68,553.48 293.05,556.85 293.41,558.50 C293.76,560.15 295.79,563.30 297.91,565.50 C310.22,578.26 327.32,584.14 343.22,581.08 C352.18,579.35 358.34,577.80 359.50,576.98 C360.05,576.59 361.75,575.98 363.27,575.61 C367.22,574.67 385.95,559.85 385.99,557.64 C385.99,557.17 387.12,555.45 388.50,553.82 C389.88,552.18 391.00,550.28 391.00,549.58 C391.00,548.88 391.90,547.50 393.00,546.50 C394.10,545.50 395.00,544.15 395.00,543.49 C395.00,542.82 396.35,539.75 398.01,536.65 C402.65,527.95 411.00,502.25 411.00,496.67 C411.00,495.44 411.90,491.87 413.00,488.74 C414.10,485.61 415.92,477.31 417.04,470.28 C418.16,463.25 419.72,455.48 420.51,453.00 C422.13,447.88 423.69,439.15 425.07,427.50 C426.25,417.56 428.67,404.93 430.54,399.00 C431.32,396.52 432.41,390.45 432.96,385.50 C434.04,375.80 436.87,363.81 440.15,355.00 C441.28,351.98 442.85,347.05 443.64,344.06 C445.33,337.64 447.82,333.31 453.72,326.50 C458.34,321.18 459.12,317.32 455.50,317.72 C454.40,317.84 449.30,318.64 444.17,319.49 C439.03,320.34 426.21,321.29 415.67,321.61 C391.37,322.35 373.32,325.69 364.26,331.13 C358.16,334.79 347.46,348.05 344.87,355.15 C342.39,361.95 340.86,363.09 337.85,360.37 C333.84,356.75 331.89,352.99 330.53,346.28 C327.39,330.75 327.10,319.09 329.45,303.50 C331.08,292.65 336.95,279.66 343.01,273.49 C345.21,271.25 347.01,268.99 347.01,268.46 C347.03,267.45 357.40,258.00 358.50,258.00 C358.85,258.00 360.57,256.96 362.32,255.68 C364.07,254.41 367.52,252.52 370.00,251.49 C372.48,250.45 375.66,248.82 377.07,247.86 C384.07,243.11 410.98,238.97 436.50,238.72 C445.30,238.64 462.85,239.19 475.50,239.95 C511.75,242.12 576.86,241.82 592.00,239.41 C594.47,239.01 597.40,238.14 598.50,237.48 C601.70,235.55 623.12,232.62 625.36,233.80 C626.55,234.43 607.13,251.97 605.20,252.02 C603.66,252.06 585.12,270.86 583.47,274.06 C582.49,275.95 579.85,279.91 577.60,282.86 C572.41,289.65 568.35,295.79 566.91,299.00 C566.30,300.38 564.08,305.10 561.97,309.50 C559.87,313.90 557.66,319.37 557.06,321.65 C556.46,323.94 554.88,328.29 553.53,331.33 C552.19,334.37 550.17,340.82 549.04,345.68 C547.91,350.53 545.87,359.23 544.52,365.00 C543.16,370.77 541.34,379.55 540.48,384.50 C539.62,389.45 538.01,398.45 536.90,404.50 C535.80,410.55 534.45,419.77 533.90,425.00 C533.35,430.23 532.24,436.98 531.44,440.00 C530.64,443.02 528.65,452.92 527.03,462.00 C524.25,477.54 522.10,488.51 518.40,506.00 C517.53,510.12 515.99,515.97 514.99,519.00 C513.99,522.03 512.03,528.55 510.65,533.50 C505.14,553.16 494.66,577.82 487.02,589.09 C485.38,591.52 484.03,593.92 484.02,594.43 C484.00,595.26 482.31,597.97 474.34,609.96 C473.07,611.87 469.21,616.44 465.77,620.11 C462.32,623.79 458.48,628.16 457.24,629.82 C454.12,633.99 432.89,650.99 430.78,650.99 C429.84,651.00 427.53,652.35 425.64,654.01 C419.20,659.67 396.99,668.95 383.82,671.49 C379.80,672.27 374.48,673.37 372.00,673.94 C365.57,675.43 341.71,676.06 333.79,674.95 ZM 331.32 672.05 C334.17,672.50 344.38,672.72 354.00,672.54 C368.70,672.26 373.11,671.80 381.54,669.67 C441.86,654.42 484.40,609.30 507.40,536.17 C515.14,511.54 522.08,478.55 532.50,416.72 C543.22,353.09 546.27,340.45 557.43,313.57 C568.56,286.76 586.95,262.69 609.75,245.11 C617.57,239.09 619.85,236.00 616.50,236.00 C615.67,236.00 615.00,236.35 615.00,236.77 C615.00,237.52 610.23,238.44 590.50,241.53 C566.90,245.22 519.79,245.80 483.50,242.86 C464.61,241.33 423.84,241.30 411.50,242.81 C396.92,244.59 385.75,247.60 375.05,252.63 C352.71,263.12 339.16,278.53 332.77,300.71 C330.18,309.73 329.70,328.52 331.82,338.00 C333.46,345.34 339.07,361.00 340.06,361.00 C340.49,361.00 341.15,359.54 341.53,357.75 C343.86,346.74 355.29,332.91 366.92,327.04 C378.31,321.29 385.87,319.97 413.00,318.98 C441.02,317.96 447.15,317.17 460.87,312.79 C466.08,311.13 467.38,311.00 468.06,312.10 C468.62,313.01 467.73,314.59 465.32,316.97 C453.88,328.28 444.39,347.18 439.08,369.20 C437.98,373.77 434.79,390.33 432.00,406.00 C422.27,460.60 416.79,488.60 412.94,503.50 C409.41,517.12 403.93,532.49 399.70,540.62 C398.81,542.34 398.36,544.03 398.71,544.37 C399.05,544.72 398.81,545.00 398.17,545.00 C397.52,545.00 397.00,545.60 397.00,546.33 C397.00,548.13 389.15,558.22 382.20,565.34 C367.64,580.27 344.72,587.57 324.73,583.62 C315.94,581.89 305.28,576.72 300.00,571.62 C295.24,567.03 292.00,563.36 292.00,562.54 C292.00,562.17 290.85,559.35 289.44,556.27 C288.03,553.19 286.36,547.15 285.74,542.85 L 284.60 535.03 L 282.20 537.26 C277.60,541.57 270.67,551.56 267.35,558.68 C253.61,588.16 259.37,625.13 281.09,646.85 C294.00,659.76 312.62,669.10 331.32,672.05 Z" fill="rgb(26,5,2)"/>
<path d="M 709.74 131.00 C707.41,128.08 705.17,125.56 703.38,123.89 C702.13,122.73 700.56,121.39 698.89,120.05 C697.67,119.03 696.46,118.09 695.26,117.25 C694.09,116.37 692.94,115.54 691.89,114.82 C691.17,114.20 690.73,113.69 690.71,113.42 C690.96,113.01 693.25,113.76 696.86,115.72 C699.64,117.40 703.02,119.77 706.42,122.39 C709.57,125.03 712.66,128.01 715.27,130.90 C714.00,129.67 712.84,128.83 712.49,129.18 C712.23,129.44 713.13,130.71 714.50,132.00 C715.88,133.29 717.00,135.17 717.00,136.17 C717.00,138.28 718.55,138.63 719.29,136.68 C719.41,136.37 719.14,135.72 718.64,134.94 C720.78,137.74 722.21,140.25 722.51,142.00 C722.83,143.96 727.92,152.22 730.89,155.63 C733.75,158.89 735.71,162.71 737.44,168.67 C734.87,159.83 731.98,156.91 729.08,160.40 C728.08,161.60 728.29,163.60 730.14,170.70 C731.13,174.48 731.73,177.65 732.08,181.32 C730.63,170.74 727.25,159.45 722.48,149.97 C719.25,143.56 714.73,136.90 709.74,131.00 ZM 733.36 309.30 L 733.33 309.27 C733.14,309.05 732.94,308.82 732.73,308.60 C731.34,307.04 729.79,305.34 728.15,303.57 L 728.03 303.44 C728.02,303.43 728.01,303.42 727.99,303.40 C724.86,300.02 722.17,296.93 719.89,294.06 C720.72,295.09 721.52,296.01 722.25,296.75 C727.59,302.16 728.46,302.68 729.47,301.04 C729.80,300.52 730.61,300.22 731.28,300.38 C731.95,300.54 732.16,300.48 731.75,300.25 C731.34,300.02 731.00,299.40 731.00,298.86 C731.00,298.33 729.16,295.18 726.91,291.87 C722.91,285.97 720.51,281.74 719.15,277.58 C719.66,278.82 720.34,280.22 721.22,282.00 C723.27,286.12 727.73,293.33 731.12,298.00 C736.43,305.30 740.30,311.77 741.24,314.71 C741.44,315.56 741.40,316.16 741.11,316.53 C740.79,316.83 740.37,316.98 739.99,316.98 C738.76,315.33 736.79,313.06 733.36,309.30 ZM 536.38 104.87 C535.50,101.01 534.99,97.81 535.08,96.56 C535.19,96.18 535.44,96.07 536.00,96.29 C536.92,96.78 538.62,97.83 540.41,99.05 C543.07,100.84 546.14,102.55 549.52,104.15 C545.01,102.17 541.42,100.36 541.17,99.77 C540.98,99.35 540.10,99.00 539.19,99.00 C538.00,99.00 538.23,99.46 540.03,100.70 C541.39,101.63 543.09,103.21 543.81,104.20 C544.09,104.59 544.44,104.95 544.80,105.24 C543.80,104.87 542.82,104.63 542.00,104.58 C540.88,104.52 540.37,106.00 540.00,110.50 L 539.57 115.63 C539.42,115.19 539.26,114.74 539.11,114.30 L 539.11 114.30 C538.02,110.93 537.08,107.68 536.38,104.87 ZM 639.00 150.77 C642.23,152.18 640.00,152.18 634.15,150.93 C631.84,150.35 629.40,149.76 626.81,149.15 C624.37,148.48 622.54,147.88 622.30,147.63 C621.08,146.41 630.72,147.01 633.60,148.34 C635.19,149.08 637.62,150.17 639.00,150.77 ZM 631.74 270.14 C627.40,273.52 623.53,276.89 620.58,279.96 C619.99,280.58 619.46,281.10 618.97,281.53 C619.57,280.67 619.98,279.57 619.97,278.55 C619.93,276.58 619.85,276.60 617.97,278.86 C617.94,278.89 617.91,278.93 617.88,278.96 C618.24,278.36 618.65,277.70 619.12,276.99 C620.39,275.24 621.94,273.23 623.53,271.26 C622.57,272.75 622.14,273.93 622.42,274.66 C622.95,276.05 623.32,276.02 625.76,274.45 C627.27,273.48 630.56,270.98 633.08,268.89 C636.18,266.33 641.88,262.55 647.83,258.97 C646.25,259.95 644.67,260.98 643.09,262.03 C641.12,263.33 639.17,264.67 637.27,266.03 C637.22,265.79 634.78,267.65 631.74,270.14 ZM 727.12 94.36 C728.92,96.48 730.72,98.72 732.40,100.92 C731.82,100.89 730.31,100.04 728.25,98.42 C726.46,97.01 725.00,95.24 725.00,94.48 C725.00,93.73 724.00,92.41 722.78,91.56 C721.56,90.70 721.07,90.00 721.71,90.00 C722.43,90.00 724.23,91.45 727.12,94.36 ZM 710.15 92.99 C710.85,91.29 711.34,89.55 711.60,87.80 C711.95,85.44 712.97,82.89 713.87,82.14 C714.20,81.86 714.45,81.64 714.62,81.47 C714.73,81.56 714.85,81.66 714.96,81.75 C715.17,81.99 715.39,82.25 715.62,82.53 C718.45,86.07 718.67,87.43 716.20,86.10 C713.80,84.82 712.32,85.88 711.42,89.51 C711.19,90.42 710.90,91.34 710.55,92.24 ZM 701.57 169.11 C701.37,168.79 701.17,168.47 700.98,168.16 C700.70,167.65 700.41,167.11 700.13,166.54 C699.72,165.72 699.35,165.03 699.00,164.45 C699.00,164.45 699.00,164.44 699.00,164.44 C699.00,164.18 698.58,163.53 697.89,162.62 C700.74,165.47 701.73,165.38 701.01,163.23 C701.26,163.70 701.49,164.16 701.72,164.61 C705.62,172.90 705.57,175.45 701.57,169.11 ZM 714.22 81.16 C714.15,81.18 714.08,81.20 714.00,81.22 C713.17,81.47 712.05,81.09 711.50,80.37 C711.28,80.09 711.00,79.87 710.65,79.72 C711.87,79.80 712.84,80.12 714.22,81.16 ZM 731.91 203.30 C731.18,208.70 729.64,212.35 726.71,216.06 C729.39,212.38 730.98,208.49 731.91,203.30 ZM 717.66 224.61 C712.09,228.39 704.89,230.70 690.50,233.91 C689.46,234.14 688.46,234.37 687.49,234.59 C690.12,233.96 693.07,233.27 696.38,232.50 C705.84,230.30 712.55,227.86 717.66,224.61 ZM 703.72 80.79 C700.80,82.03 697.56,84.01 694.84,86.33 C695.34,85.85 695.85,85.39 696.36,84.95 C698.66,83.12 701.15,81.69 703.72,80.79 ZM 574.75 112.54 C571.08,111.80 567.75,110.94 564.45,109.92 C563.21,109.54 561.77,109.05 560.22,108.48 C564.84,110.07 569.74,111.45 574.75,112.54 ZM 562.38 115.35 C556.48,112.97 551.82,110.52 550.11,108.63 C552.31,110.67 556.81,113.06 562.38,115.35 ZM 738.35 172.12 C738.70,173.53 739.04,175.05 739.38,176.69 C740.80,183.54 741.56,189.43 741.65,194.73 C741.54,189.55 740.77,183.72 739.38,176.78 C739.04,175.11 738.70,173.56 738.35,172.12 ZM 645.63 251.32 C641.65,254.06 637.69,257.13 634.19,260.15 C636.82,257.83 639.59,255.60 642.45,253.52 C643.50,252.77 644.56,252.04 645.63,251.32 ZM 589.14 114.73 C595.30,115.37 603.20,116.05 610.50,116.53 C601.98,115.97 595.05,115.39 589.14,114.73 ZM 716.19 289.10 C715.17,287.56 714.28,286.04 713.44,284.45 C714.91,287.15 716.95,290.25 718.94,292.86 C717.94,291.56 717.02,290.31 716.19,289.10 ZM 546.58 106.02 C547.24,106.13 548.33,106.84 549.24,107.74 C548.53,107.13 547.59,106.53 546.58,106.02 ZM 687.21 97.01 C686.26,99.19 685.54,101.39 685.12,103.41 L 685.13 103.35 C685.23,102.81 685.35,102.26 685.48,101.72 L 685.48 101.72 C685.89,100.17 686.48,98.58 687.21,97.01 ZM 691.16 155.09 C688.59,152.45 686.02,150.01 684.53,148.93 C683.61,148.28 682.71,147.63 681.81,147.01 C682.74,147.65 683.68,148.32 684.62,149.00 C686.20,150.13 688.76,152.54 691.16,155.09 ZM 710.65 278.75 C710.88,279.29 711.13,279.86 711.42,280.47 C711.20,280.01 710.99,279.58 710.81,279.18 C710.75,279.04 710.70,278.90 710.65,278.75 ZM 682.11 138.54 C681.20,137.75 680.07,136.82 678.91,135.91 C680.00,136.76 681.07,137.64 682.11,138.54 Z" fill="rgb(110,152,90)"/>
<path d="M 409.50 863.43 C408.40,863.27 402.55,862.61 396.50,861.97 C354.85,857.55 308.82,842.65 272.07,821.68 C215.76,789.56 176.11,744.91 160.05,695.55 C148.38,659.65 148.58,623.70 160.67,587.19 C171.67,553.98 193.76,527.30 222.92,510.88 C211.55,517.99 203.57,529.01 195.30,548.50 C186.17,569.99 183.88,583.47 184.40,612.50 C184.70,628.73 185.14,633.25 187.46,643.50 C190.06,655.00 195.38,669.91 200.42,679.83 C204.89,688.62 215.26,703.50 223.62,713.12 C263.05,758.49 325.68,784.90 394.00,784.98 C406.91,784.99 434.35,782.49 448.71,779.99 C493.84,772.12 537.41,755.10 576.82,729.94 C584.69,724.91 591.40,721.07 591.73,721.40 C592.72,722.39 568.18,746.11 558.64,753.39 C528.52,776.36 501.42,791.13 467.50,803.05 C459.25,805.95 452.07,808.70 451.55,809.16 C449.90,810.62 456.33,810.09 471.56,807.51 C506.52,801.58 535.07,792.36 567.50,776.51 C608.50,756.48 646.11,729.30 679.50,695.57 C734.59,639.93 778.50,560.94 796.97,484.25 C802.65,460.65 802.79,459.97 804.96,445.50 C812.30,396.66 808.46,353.59 794.23,325.00 C787.76,312.01 787.38,311.99 771.50,324.06 C763.57,330.08 757.17,335.40 752.12,340.15 C756.38,336.05 761.22,331.80 765.27,328.69 C783.54,314.66 790.19,307.94 795.96,297.73 C797.87,294.34 799.87,292.01 800.85,292.01 C803.55,292.04 825.42,299.67 833.24,303.32 C854.01,313.01 870.08,332.76 877.41,357.60 C885.90,386.34 886.64,428.17 879.39,469.00 C870.51,519.06 853.26,567.67 828.36,612.83 C819.11,629.61 816.92,633.20 805.17,650.94 C764.90,711.74 710.49,763.69 646.86,802.09 C629.29,812.69 595.15,829.41 577.00,836.31 C525.00,856.06 483.05,864.11 433.50,863.84 C421.40,863.78 410.60,863.60 409.50,863.43 ZM 331.32 672.05 C312.62,669.10 294.00,659.76 281.09,646.85 C259.37,625.13 253.61,588.16 267.35,558.68 C270.67,551.56 277.60,541.57 282.20,537.26 L 284.60 535.03 L 285.74 542.85 C286.36,547.15 288.03,553.19 289.44,556.27 C290.03,557.56 290.57,558.79 291.00,559.83 C290.29,558.35 289.07,556.31 287.88,554.67 C285.91,551.96 285.00,549.50 285.00,546.91 C285.00,539.74 282.89,540.77 278.00,550.35 C274.51,557.18 274.50,557.26 274.55,570.35 C274.64,593.51 278.23,603.15 291.87,616.90 C303.14,628.25 314.62,634.17 328.98,636.02 C375.31,642.01 420.92,613.13 444.36,562.96 C459.33,530.94 466.27,503.28 480.00,421.00 C485.11,390.41 488.19,374.84 492.17,359.50 C499.48,331.38 511.12,307.35 525.63,290.44 C545.25,267.59 564.86,255.27 603.50,241.51 C610.83,238.90 612.57,238.06 607.45,238.77 C613.24,237.74 615.00,237.23 615.00,236.77 C615.00,236.35 615.67,236.00 616.50,236.00 C619.85,236.00 617.57,239.09 609.75,245.11 C586.95,262.69 568.56,286.76 557.43,313.57 C546.27,340.45 543.22,353.09 532.50,416.72 C522.08,478.55 515.14,511.54 507.40,536.17 C484.40,609.30 441.86,654.42 381.54,669.67 C373.11,671.80 368.70,672.26 354.00,672.54 C344.38,672.72 334.17,672.50 331.32,672.05 ZM 247.59 535.47 C240.97,545.93 235.98,557.79 233.09,570.18 C234.16,564.98 235.00,559.93 235.00,558.60 C235.00,554.21 238.67,546.09 242.68,541.62 C243.80,540.37 245.62,538.08 247.59,535.47 ZM 460.52 312.90 C465.73,311.09 471.47,308.70 474.00,307.17 C475.38,306.33 472.79,309.44 468.26,314.08 C464.52,317.90 461.74,320.87 459.48,323.61 C461.36,321.18 463.31,318.96 465.32,316.97 C467.73,314.59 468.62,313.01 468.06,312.10 C467.38,311.00 466.08,311.13 460.87,312.79 C460.75,312.83 460.63,312.87 460.52,312.90 ZM 493.48 243.57 C490.16,243.41 487.13,243.23 484.50,243.03 C476.26,242.40 466.29,241.98 456.25,241.78 C466.63,241.94 476.55,242.30 483.50,242.86 C486.75,243.13 490.08,243.36 493.48,243.57 ZM 563.98 243.99 C572.85,243.53 580.85,242.85 587.39,241.98 C584.11,242.42 580.70,242.85 577.82,243.16 C574.60,243.51 569.79,243.79 563.98,243.99 ZM 441.73 359.55 C439.91,365.70 438.22,373.02 436.23,383.15 C437.49,376.62 438.54,371.45 439.08,369.20 C439.87,365.91 440.76,362.69 441.73,359.55 ZM 273.86 507.59 C271.61,509.25 269.45,510.91 267.58,512.46 C263.50,515.85 259.67,519.66 256.13,523.84 C259.45,519.68 262.96,516.20 267.48,512.50 C269.40,510.93 271.59,509.25 273.86,507.59 ZM 230.70 592.85 C230.63,600.45 231.05,608.23 231.94,612.96 C232.57,616.29 233.34,619.57 234.24,622.80 C233.34,619.58 232.56,616.29 231.92,612.96 C230.93,607.79 230.54,600.41 230.70,592.85 ZM 254.15 498.04 C255.59,497.65 257.04,497.27 258.50,496.92 C261.22,496.26 265.20,495.67 269.52,495.20 C264.18,495.83 259.14,496.75 254.15,498.04 ZM 308.13 577.37 C312.19,579.62 316.85,581.56 321.29,582.80 C317.45,581.80 313.73,580.39 310.23,578.54 C309.53,578.17 308.83,577.78 308.13,577.37 ZM 350.38 582.97 C362.34,580.18 373.70,574.06 382.20,565.34 C373.51,574.25 362.22,580.26 350.38,582.97 ZM 294.13 565.57 C295.40,567.02 297.17,568.87 299.29,570.93 C297.26,569.14 295.49,567.31 294.13,565.57 ZM 435.39 317.85 C441.93,317.31 446.37,316.59 451.93,315.37 C447.03,316.57 442.23,317.30 435.39,317.85 ZM 277.46 494.49 C281.63,494.20 285.62,494.04 288.63,494.07 C286.56,494.08 283.80,494.17 280.25,494.34 C279.31,494.38 278.38,494.43 277.46,494.49 ZM 598.40 240.28 C598.05,240.34 597.69,240.40 597.32,240.47 C595.08,240.87 591.78,241.37 588.26,241.86 C589.03,241.75 589.78,241.64 590.50,241.53 C593.46,241.06 596.08,240.65 598.40,240.28 ZM 416.14 242.39 C414.40,242.52 412.84,242.67 411.50,242.83 C403.85,243.75 397.12,245.02 390.90,246.75 C397.11,245.02 403.83,243.75 411.50,242.81 C412.77,242.65 414.33,242.52 416.14,242.39 ZM 450.44 338.01 C450.34,338.21 450.24,338.41 450.14,338.62 C448.98,340.96 447.94,343.15 446.99,345.31 C448.08,342.79 449.23,340.35 450.44,338.01 ZM 292.60 496.03 C291.29,496.30 287.98,498.13 283.98,500.67 C288.08,498.05 291.42,496.20 292.60,496.03 ZM 294.00 494.84 C294.00,495.44 293.55,495.94 292.99,496.00 C293.56,495.88 294.00,495.40 294.00,494.84 ZM 291.59 561.27 C291.64,561.42 291.69,561.56 291.74,561.68 C291.68,561.54 291.63,561.41 291.59,561.27 Z" fill="rgb(133,16,19)"/>

<path d="M 451.55 809.16 C452.07,808.70 459.25,805.95 467.50,803.05 C501.42,791.13 528.52,776.36 558.64,753.39 C568.18,746.11 592.72,722.39 591.73,721.40 C591.40,721.07 584.69,724.91 576.82,729.94 C537.41,755.10 493.84,772.12 448.71,779.99 C434.35,782.49 406.91,784.99 394.00,784.98 C325.68,784.90 263.05,758.49 223.62,713.12 C215.26,703.50 204.89,688.62 200.42,679.83 C195.38,669.91 190.06,655.00 187.46,643.50 C185.14,633.25 184.70,628.73 184.40,612.50 C183.88,583.47 186.17,569.99 195.30,548.50 C204.77,526.19 213.86,514.97 228.09,508.02 C246.56,498.99 260.81,495.25 280.25,494.34 C290.36,493.86 294.00,494.00 294.00,494.84 C294.00,495.48 293.44,496.01 292.75,496.02 C290.48,496.06 276.18,505.38 267.48,512.50 C261.39,517.48 257.13,522.08 252.71,528.43 C249.30,533.34 244.78,539.28 242.68,541.62 C238.67,546.09 235.00,554.21 235.00,558.60 C235.00,560.02 234.03,565.76 232.85,571.34 C230.36,583.12 229.93,602.55 231.92,612.96 C236.49,636.77 247.85,657.73 264.21,672.53 C270.06,677.82 284.76,687.81 292.48,691.73 C300.22,695.67 316.14,700.84 326.28,702.72 C338.68,705.01 365.06,704.99 377.58,702.67 C404.16,697.77 428.20,688.31 448.04,674.98 C452.92,671.69 457.19,669.00 457.53,669.00 C458.61,669.00 477.37,652.33 483.58,645.85 C510.94,617.27 532.37,578.78 545.85,534.00 C553.63,508.17 559.64,479.16 565.53,439.00 C573.48,384.79 579.41,360.15 589.23,340.50 C600.35,318.26 614.36,303.32 632.75,294.10 C645.91,287.51 653.24,285.65 672.50,284.04 C679.10,283.49 686.53,282.77 689.00,282.44 L 693.50 281.85 L 696.42 289.14 C698.68,294.80 701.69,299.26 709.78,308.97 C715.52,315.86 721.21,322.40 722.41,323.50 C726.34,327.09 729.73,332.32 735.02,342.93 L 740.22 353.36 L 743.82 348.93 C749.34,342.14 758.31,334.08 771.50,324.06 C787.38,311.99 787.76,312.01 794.23,325.00 C808.46,353.59 812.30,396.66 804.96,445.50 C802.79,459.97 802.65,460.65 796.97,484.25 C778.50,560.94 734.59,639.93 679.50,695.57 C646.11,729.30 608.50,756.48 567.50,776.51 C535.07,792.36 506.52,801.58 471.56,807.51 C456.33,810.09 449.90,810.62 451.55,809.16 ZM 328.98 636.02 C314.62,634.17 303.14,628.25 291.87,616.90 C278.23,603.15 274.64,593.51 274.55,570.35 C274.50,557.26 274.51,557.18 278.00,550.35 C282.89,540.77 285.00,539.74 285.00,546.91 C285.00,549.50 285.91,551.96 287.88,554.67 C289.46,556.85 291.10,559.73 291.52,561.07 C293.09,566.05 301.60,574.00 310.23,578.54 C332.49,590.27 363.43,584.60 382.20,565.34 C389.15,558.22 397.00,548.13 397.00,546.33 C397.00,545.60 397.52,545.00 398.17,545.00 C398.81,545.00 399.05,544.72 398.71,544.37 C398.36,544.03 398.81,542.34 399.70,540.62 C403.93,532.49 409.41,517.12 412.94,503.50 C416.79,488.60 422.27,460.60 432.00,406.00 C439.36,364.69 441.85,355.45 450.14,338.62 C455.11,328.52 458.14,324.42 468.26,314.08 C472.79,309.44 475.38,306.33 474.00,307.17 C470.18,309.49 459.00,313.77 453.45,315.03 C442.36,317.55 436.43,318.13 413.00,318.98 C385.87,319.97 378.31,321.29 366.92,327.04 C355.29,332.91 343.86,346.74 341.53,357.75 C341.15,359.54 340.49,361.00 340.06,361.00 C339.07,361.00 333.46,345.34 331.82,338.00 C329.70,328.52 330.18,309.73 332.77,300.71 C339.16,278.53 352.71,263.12 375.05,252.63 C385.78,247.59 396.98,244.57 411.50,242.83 C425.23,241.17 461.59,241.28 484.50,243.03 C507.78,244.81 561.94,244.89 577.82,243.16 C584.05,242.48 592.83,241.27 597.32,240.47 C613.05,237.66 613.90,237.80 603.50,241.51 C564.86,255.27 545.25,267.59 525.63,290.44 C511.12,307.35 499.48,331.38 492.17,359.50 C488.19,374.84 485.11,390.41 480.00,421.00 C466.27,503.28 459.33,530.94 444.36,562.96 C420.92,613.13 375.31,642.01 328.98,636.02 ZM 722.25 296.75 C719.34,293.80 715.30,288.08 713.04,283.70 C709.56,276.97 709.00,275.01 709.00,269.51 C709.00,266.00 709.52,261.86 710.16,260.32 C710.80,258.77 711.27,257.23 711.21,256.91 C711.04,255.96 719.80,247.00 720.90,247.00 C721.47,247.00 721.28,248.49 720.44,250.50 C719.63,252.43 719.26,254.00 719.61,254.00 C719.96,254.00 719.65,254.71 718.93,255.58 C718.08,256.61 717.61,260.19 717.59,265.83 C717.55,275.62 719.41,280.83 726.91,291.87 C729.16,295.18 731.00,298.33 731.00,298.86 C731.00,299.40 731.34,300.02 731.75,300.25 C732.16,300.48 731.95,300.54 731.28,300.38 C730.61,300.22 729.80,300.52 729.47,301.04 C728.46,302.68 727.59,302.16 722.25,296.75 ZM 622.42 274.66 C620.89,270.65 640.53,253.13 655.00,245.60 C665.24,240.27 672.08,238.02 690.50,233.91 C709.88,229.59 716.22,226.89 723.09,220.05 C730.83,212.33 732.51,207.24 732.47,191.50 C732.45,182.28 731.91,177.46 730.14,170.70 C728.29,163.60 728.08,161.60 729.08,160.40 C732.74,156.00 736.37,161.79 739.38,176.78 C742.98,194.76 742.40,205.28 737.18,216.42 C729.79,232.22 723.74,235.30 681.10,244.99 C675.92,246.17 668.78,248.30 665.21,249.73 C657.53,252.80 639.57,263.52 633.08,268.89 C630.56,270.98 627.27,273.48 625.76,274.45 C623.32,276.02 622.95,276.05 622.42,274.66 ZM 694.12 158.42 C691.16,154.87 686.89,150.63 684.62,149.00 C661.48,132.36 645.01,126.87 613.92,125.44 C605.99,125.08 594.55,123.94 588.50,122.92 C573.31,120.34 554.02,113.00 549.60,108.11 C548.55,106.95 547.11,106.00 546.40,106.00 C545.69,106.00 544.53,105.19 543.81,104.20 C543.09,103.21 541.39,101.63 540.03,100.70 C538.23,99.46 538.00,99.00 539.19,99.00 C540.10,99.00 540.98,99.35 541.17,99.77 C541.69,100.99 556.77,107.56 564.45,109.92 C575.54,113.33 586.96,114.97 610.50,116.53 C633.68,118.07 644.55,119.66 655.09,123.08 C669.39,127.71 683.53,137.70 692.47,149.48 C703.15,163.57 704.51,170.90 694.12,158.42 ZM 717.00 136.17 C717.00,135.17 715.88,133.29 714.50,132.00 C713.13,130.71 712.23,129.44 712.49,129.18 C713.39,128.28 719.80,135.35 719.29,136.68 C718.55,138.63 717.00,138.28 717.00,136.17 ZM 685.43 110.88 C683.30,107.43 685.76,97.88 690.58,90.89 C695.61,83.62 708.88,76.94 711.50,80.37 C712.05,81.09 713.17,81.47 714.00,81.22 C715.20,80.86 715.18,81.04 713.87,82.14 C712.97,82.89 711.95,85.44 711.60,87.80 C710.40,95.86 704.24,103.82 696.00,107.97 C688.58,111.70 686.32,112.33 685.43,110.88 Z" fill="rgb(131,180,75)"/>
<path d="M 451.55 809.16 C452.07,808.70 459.25,805.95 467.50,803.05 C501.42,791.13 528.52,776.36 558.64,753.39 C568.18,746.11 592.72,722.39 591.73,721.40 C591.40,721.07 584.69,724.91 576.82,729.94 C537.41,755.10 493.84,772.12 448.71,779.99 C434.35,782.49 406.91,784.99 394.00,784.98 C325.68,784.90 263.05,758.49 223.62,713.12 C215.26,703.50 204.89,688.62 200.42,679.83 C195.38,669.91 190.06,655.00 187.46,643.50 C185.14,633.25 184.70,628.73 184.40,612.50 C183.88,583.47 186.17,569.99 195.30,548.50 C204.77,526.19 213.86,514.97 228.09,508.02 C246.56,498.99 260.81,495.25 280.25,494.34 C290.36,493.86 294.00,494.00 294.00,494.84 C294.00,495.48 293.44,496.01 292.75,496.02 C290.48,496.06 276.18,505.38 267.48,512.50 C261.39,517.48 257.13,522.08 252.71,528.43 C249.30,533.34 244.78,539.28 242.68,541.62 C238.67,546.09 235.00,554.21 235.00,558.60 C235.00,560.02 234.03,565.76 232.85,571.34 C230.36,583.12 229.93,602.55 231.92,612.96 C236.49,636.77 247.85,657.73 264.21,672.53 C270.06,677.82 284.76,687.81 292.48,691.73 C300.22,695.67 316.14,700.84 326.28,702.72 C338.68,705.01 365.06,704.99 377.58,702.67 C404.16,697.77 428.20,688.31 448.04,674.98 C452.92,671.69 457.19,669.00 457.53,669.00 C458.61,669.00 477.37,652.33 483.58,645.85 C510.94,617.27 532.37,578.78 545.85,534.00 C553.63,508.17 559.64,479.16 565.53,439.00 C573.48,384.79 579.41,360.15 589.23,340.50 C600.35,318.26 614.36,303.32 632.75,294.10 C645.91,287.51 653.24,285.65 672.50,284.04 C679.10,283.49 686.53,282.77 689.00,282.44 L 693.50 281.85 L 696.42 289.14 C698.68,294.80 701.69,299.26 709.78,308.97 C715.52,315.86 721.21,322.40 722.41,323.50 C726.34,327.09 729.73,332.32 735.02,342.93 L 740.22 353.36 L 743.82 348.93 C749.34,342.14 758.31,334.08 771.50,324.06 C787.38,311.99 787.76,312.01 794.23,325.00 C808.46,353.59 812.30,396.66 804.96,445.50 C802.79,459.97 802.65,460.65 796.97,484.25 C778.50,560.94 734.59,639.93 679.50,695.57 C646.11,729.30 608.50,756.48 567.50,776.51 C535.07,792.36 506.52,801.58 471.56,807.51 C456.33,810.09 449.90,810.62 451.55,809.16 ZM 328.98 636.02 C314.62,634.17 303.14,628.25 291.87,616.90 C278.23,603.15 274.64,593.51 274.55,570.35 C274.50,557.26 274.51,557.18 278.00,550.35 C282.89,540.77 285.00,539.74 285.00,546.91 C285.00,549.50 285.91,551.96 287.88,554.67 C289.46,556.85 291.10,559.73 291.52,561.07 C293.09,566.05 301.60,574.00 310.23,578.54 C332.49,590.27 363.43,584.60 382.20,565.34 C389.15,558.22 397.00,548.13 397.00,546.33 C397.00,545.60 397.52,545.00 398.17,545.00 C398.81,545.00 399.05,544.72 398.71,544.37 C398.36,544.03 398.81,542.34 399.70,540.62 C403.93,532.49 409.41,517.12 412.94,503.50 C416.79,488.60 422.27,460.60 432.00,406.00 C439.36,364.69 441.85,355.45 450.14,338.62 C455.11,328.52 458.14,324.42 468.26,314.08 C472.79,309.44 475.38,306.33 474.00,307.17 C470.18,309.49 459.00,313.77 453.45,315.03 C442.36,317.55 436.43,318.13 413.00,318.98 C385.87,319.97 378.31,321.29 366.92,327.04 C355.29,332.91 343.86,346.74 341.53,357.75 C341.15,359.54 340.49,361.00 340.06,361.00 C339.07,361.00 333.46,345.34 331.82,338.00 C329.70,328.52 330.18,309.73 332.77,300.71 C339.16,278.53 352.71,263.12 375.05,252.63 C385.78,247.59 396.98,244.57 411.50,242.83 C425.23,241.17 461.59,241.28 484.50,243.03 C507.78,244.81 561.94,244.89 577.82,243.16 C584.05,242.48 592.83,241.27 597.32,240.47 C613.05,237.66 613.90,237.80 603.50,241.51 C564.86,255.27 545.25,267.59 525.63,290.44 C511.12,307.35 499.48,331.38 492.17,359.50 C488.19,374.84 485.11,390.41 480.00,421.00 C466.27,503.28 459.33,530.94 444.36,562.96 C420.92,613.13 375.31,642.01 328.98,636.02 ZM 721.61 295.94 C718.52,292.61 716.00,289.36 716.00,288.72 C716.00,288.08 716.66,288.50 717.47,289.66 C719.15,292.05 725.13,293.50 724.29,291.31 C724.01,290.59 724.31,290.00 724.95,290.00 C725.59,290.00 725.86,290.41 725.55,290.91 C725.24,291.42 725.55,292.06 726.24,292.34 C727.24,292.74 727.24,292.86 726.25,292.92 C725.56,292.96 725.00,293.64 725.00,294.42 C725.00,295.20 725.56,296.02 726.25,296.25 C727.21,296.57 728.30,302.00 727.40,302.00 C727.30,302.00 724.69,299.27 721.61,295.94 ZM 711.12 280.06 C708.06,272.95 708.31,259.00 711.49,259.00 C712.19,259.00 713.29,259.65 713.95,260.44 C714.61,261.23 715.68,261.68 716.32,261.43 C717.17,261.10 717.40,262.72 717.15,267.21 C716.88,272.08 716.36,273.76 714.79,274.86 C713.13,276.02 712.86,277.06 713.26,280.64 C713.53,283.04 713.64,285.00 713.50,285.00 C713.36,285.00 712.29,282.78 711.12,280.06 ZM 622.41 274.63 C621.71,272.81 628.47,264.39 633.91,260.29 C635.88,258.80 636.97,258.25 636.31,259.07 C635.66,259.88 635.26,261.74 635.42,263.19 C635.62,265.08 635.32,265.68 634.34,265.30 C633.41,264.94 633.17,265.29 633.60,266.41 C634.23,268.04 631.98,270.35 625.84,274.35 C623.34,275.97 622.94,276.01 622.41,274.63 ZM 654.48 253.03 C655.71,251.04 648.45,250.52 645.00,252.36 C644.17,252.79 644.62,252.17 646.00,250.96 C649.47,247.92 662.45,241.52 670.11,239.07 C673.63,237.95 682.80,235.63 690.50,233.91 C709.88,229.59 716.22,226.89 723.09,220.05 C729.81,213.35 732.03,207.64 733.02,194.50 C733.39,189.55 733.77,186.50 733.85,187.72 C734.06,190.80 737.15,197.02 738.16,196.40 C738.62,196.11 739.07,197.37 739.15,199.19 L 739.30 202.50 L 739.77 199.50 C740.17,196.94 740.34,196.79 740.96,198.47 C741.35,199.55 741.24,201.88 740.70,203.64 C739.90,206.22 739.22,206.80 737.17,206.67 C734.98,206.52 734.17,207.41 731.38,213.00 C727.92,219.91 727.33,222.93 729.08,224.68 C730.70,226.30 728.25,229.64 723.32,232.54 C718.54,235.36 715.51,235.65 713.36,233.50 C711.49,231.63 708.99,231.63 702.08,233.47 C699.10,234.26 696.28,234.67 695.81,234.38 C695.34,234.09 695.03,234.22 695.13,234.68 C695.23,235.13 694.97,236.31 694.54,237.29 C694.10,238.28 694.01,239.35 694.33,239.66 C695.19,240.53 692.38,243.00 690.53,243.00 C686.76,243.00 668.74,248.10 662.49,250.93 C655.40,254.14 653.48,254.65 654.48,253.03 ZM 730.36 171.95 C729.48,167.67 729.54,167.11 730.70,168.27 C732.34,169.91 733.66,177.00 732.33,177.00 C731.82,177.00 730.93,174.73 730.36,171.95 ZM 699.00 164.19 C699.00,163.75 695.67,159.89 691.59,155.63 C685.93,149.70 684.25,147.30 684.46,145.42 C684.65,143.70 683.82,142.19 681.74,140.43 C677.62,136.97 679.04,136.16 683.40,139.49 C687.53,142.64 696.87,154.66 699.91,160.75 C701.68,164.29 701.79,165.00 700.52,165.00 C699.68,165.00 699.00,164.64 699.00,164.19 ZM 673.58 134.84 C669.93,132.92 669.46,132.89 666.99,134.35 C665.52,135.22 663.91,135.55 663.41,135.08 C662.91,134.62 660.70,133.70 658.50,133.03 C650.30,130.56 646.06,128.72 646.58,127.87 C646.88,127.39 646.57,127.00 645.89,127.00 C645.22,127.00 644.95,126.72 645.29,126.38 C646.94,124.73 642.22,122.77 634.12,121.75 C627.00,120.85 624.09,120.90 619.52,122.00 C616.38,122.75 610.36,123.32 606.15,123.27 C584.65,123.02 584.80,123.04 580.44,118.34 C577.54,115.21 567.97,111.86 562.66,112.12 C557.87,112.35 546.16,107.23 543.52,103.75 C542.96,103.01 541.39,101.64 540.03,100.70 C538.23,99.46 538.00,99.00 539.19,99.00 C540.10,99.00 540.98,99.35 541.17,99.77 C541.69,100.99 556.77,107.56 564.45,109.92 C575.54,113.33 586.96,114.97 610.50,116.53 C634.28,118.11 645.11,119.75 655.94,123.41 C664.56,126.33 675.63,132.43 677.02,135.04 C678.28,137.40 678.44,137.41 673.58,134.84 ZM 687.00 97.22 C687.00,95.81 691.98,88.72 694.17,87.00 C695.23,86.18 697.29,84.50 698.76,83.29 C701.34,81.14 709.67,78.68 711.17,79.61 C711.58,79.86 711.65,80.75 711.32,81.60 C710.89,82.72 709.55,83.06 706.38,82.87 C702.83,82.65 701.17,83.20 697.42,85.84 C694.89,87.63 693.03,89.63 693.28,90.30 C693.54,90.97 692.23,93.01 690.37,94.84 C688.52,96.67 687.00,97.74 687.00,97.22 Z" fill="rgb(145,190,87)"/>
<path d="M 451.55 809.16 C452.07,808.70 459.25,805.95 467.50,803.05 C501.42,791.13 528.52,776.36 558.64,753.39 C568.18,746.11 592.72,722.39 591.73,721.40 C591.40,721.07 584.69,724.91 576.82,729.94 C537.41,755.10 493.84,772.12 448.71,779.99 C434.35,782.49 406.91,784.99 394.00,784.98 C325.68,784.90 263.05,758.49 223.62,713.12 C215.26,703.50 204.89,688.62 200.42,679.83 C195.38,669.91 190.06,655.00 187.46,643.50 C185.14,633.25 184.70,628.73 184.40,612.50 C183.88,583.47 186.17,569.99 195.30,548.50 C204.77,526.19 213.86,514.97 228.09,508.02 C246.56,498.99 260.81,495.25 280.25,494.34 C290.36,493.86 294.00,494.00 294.00,494.84 C294.00,495.48 293.44,496.01 292.75,496.02 C290.48,496.06 276.18,505.38 267.48,512.50 C261.39,517.48 257.13,522.08 252.71,528.43 C249.30,533.34 244.78,539.28 242.68,541.62 C238.67,546.09 235.00,554.21 235.00,558.60 C235.00,560.02 234.03,565.76 232.85,571.34 C230.36,583.12 229.93,602.55 231.92,612.96 C236.49,636.77 247.85,657.73 264.21,672.53 C270.06,677.82 284.76,687.81 292.48,691.73 C300.22,695.67 316.14,700.84 326.28,702.72 C338.68,705.01 365.06,704.99 377.58,702.67 C404.16,697.77 428.20,688.31 448.04,674.98 C452.92,671.69 457.19,669.00 457.53,669.00 C458.61,669.00 477.37,652.33 483.58,645.85 C510.94,617.27 532.37,578.78 545.85,534.00 C553.63,508.17 559.64,479.16 565.53,439.00 C573.48,384.79 579.41,360.15 589.23,340.50 C600.35,318.26 614.36,303.32 632.75,294.10 C645.91,287.51 653.24,285.65 672.50,284.04 C679.10,283.49 686.53,282.77 689.00,282.44 L 693.50 281.85 L 696.42 289.14 C698.68,294.80 701.69,299.26 709.78,308.97 C715.52,315.86 721.21,322.40 722.41,323.50 C726.34,327.09 729.73,332.32 735.02,342.93 L 740.22 353.36 L 743.82 348.93 C749.34,342.14 758.31,334.08 771.50,324.06 C787.38,311.99 787.76,312.01 794.23,325.00 C808.46,353.59 812.30,396.66 804.96,445.50 C802.79,459.97 802.65,460.65 796.97,484.25 C778.50,560.94 734.59,639.93 679.50,695.57 C646.11,729.30 608.50,756.48 567.50,776.51 C535.07,792.36 506.52,801.58 471.56,807.51 C456.33,810.09 449.90,810.62 451.55,809.16 ZM 328.98 636.02 C314.62,634.17 303.14,628.25 291.87,616.90 C278.23,603.15 274.64,593.51 274.55,570.35 C274.50,557.26 274.51,557.18 278.00,550.35 C282.89,540.77 285.00,539.74 285.00,546.91 C285.00,549.50 285.91,551.96 287.88,554.67 C289.46,556.85 291.10,559.73 291.52,561.07 C293.09,566.05 301.60,574.00 310.23,578.54 C332.49,590.27 363.43,584.60 382.20,565.34 C389.15,558.22 397.00,548.13 397.00,546.33 C397.00,545.60 397.52,545.00 398.17,545.00 C398.81,545.00 399.05,544.72 398.71,544.37 C398.36,544.03 398.81,542.34 399.70,540.62 C403.93,532.49 409.41,517.12 412.94,503.50 C416.79,488.60 422.27,460.60 432.00,406.00 C439.36,364.69 441.85,355.45 450.14,338.62 C455.11,328.52 458.14,324.42 468.26,314.08 C472.79,309.44 475.38,306.33 474.00,307.17 C470.18,309.49 459.00,313.77 453.45,315.03 C442.36,317.55 436.43,318.13 413.00,318.98 C385.87,319.97 378.31,321.29 366.92,327.04 C355.29,332.91 343.86,346.74 341.53,357.75 C341.15,359.54 340.49,361.00 340.06,361.00 C339.07,361.00 333.46,345.34 331.82,338.00 C329.70,328.52 330.18,309.73 332.77,300.71 C339.16,278.53 352.71,263.12 375.05,252.63 C385.78,247.59 396.98,244.57 411.50,242.83 C425.23,241.17 461.59,241.28 484.50,243.03 C507.78,244.81 561.94,244.89 577.82,243.16 C584.05,242.48 592.83,241.27 597.32,240.47 C613.05,237.66 613.90,237.80 603.50,241.51 C564.86,255.27 545.25,267.59 525.63,290.44 C511.12,307.35 499.48,331.38 492.17,359.50 C488.19,374.84 485.11,390.41 480.00,421.00 C466.27,503.28 459.33,530.94 444.36,562.96 C420.92,613.13 375.31,642.01 328.98,636.02 Z" fill="rgb(173,30,30)"/>
<path d="M 343.63 720.43 C309.31,715.09 278.03,696.07 256.60,667.50 C248.88,657.21 249.05,657.20 259.22,667.42 C268.18,676.43 281.44,686.12 292.48,691.73 C300.22,695.67 316.14,700.84 326.28,702.72 C338.68,705.01 365.06,704.99 377.58,702.67 C404.16,697.77 428.20,688.31 448.04,674.98 C452.92,671.69 457.19,669.00 457.53,669.00 C458.61,669.00 477.37,652.33 483.58,645.85 C510.94,617.27 532.37,578.78 545.85,534.00 C553.63,508.17 559.64,479.16 565.53,439.00 C573.48,384.79 579.41,360.15 589.23,340.50 C600.35,318.26 614.36,303.32 632.75,294.10 C645.91,287.51 653.24,285.65 672.50,284.04 C679.10,283.49 686.64,282.74 689.25,282.38 C693.51,281.80 694.00,281.93 694.00,283.66 C694.00,284.73 694.54,286.14 695.20,286.80 C696.00,287.60 696.04,288.00 695.31,288.00 C694.71,288.00 693.95,287.33 693.64,286.50 C692.74,284.15 686.57,284.68 680.72,287.61 C658.89,298.54 642.43,315.10 630.67,337.96 C618.17,362.24 613.27,380.82 603.49,441.00 C594.62,495.51 585.84,529.57 572.10,562.74 C548.01,620.92 510.35,666.24 462.79,694.31 C425.77,716.15 380.27,726.13 343.63,720.43 ZM 184.03 600.25 C184.10,582.91 187.69,566.41 195.30,548.50 C204.77,526.19 213.86,514.97 228.09,508.02 C238.43,502.96 248.07,499.44 258.50,496.92 C267.77,494.68 294.00,493.06 294.00,494.74 C294.00,495.97 291.15,496.68 285.21,496.91 C279.91,497.13 266.03,501.09 256.73,505.05 C246.75,509.30 231.67,519.73 222.34,528.85 C213.68,537.31 202.87,552.59 198.10,563.12 C192.98,574.42 188.25,590.82 186.53,603.25 C185.51,610.65 184.00,608.84 184.03,600.25 ZM 330.50 590.11 C317.28,586.50 309.61,582.57 304.00,576.52 C301.73,574.07 302.20,574.20 309.14,577.94 C332.18,590.35 363.00,585.04 382.20,565.34 C389.15,558.22 397.00,548.13 397.00,546.33 C397.00,545.60 397.52,545.00 398.17,545.00 C398.81,545.00 399.05,544.72 398.71,544.37 C398.36,544.03 398.81,542.34 399.70,540.62 C403.93,532.49 409.41,517.12 412.94,503.50 C416.79,488.60 422.27,460.60 432.00,406.00 C439.36,364.69 441.85,355.45 450.14,338.62 C455.11,328.52 458.14,324.42 468.26,314.08 C472.79,309.44 475.38,306.33 474.00,307.17 C470.18,309.49 459.00,313.77 453.45,315.03 C442.36,317.55 436.43,318.13 413.00,318.98 C385.87,319.97 378.31,321.29 366.92,327.04 C359.88,330.59 350.29,339.18 347.43,344.50 C344.28,350.36 343.68,348.90 345.47,339.75 C345.66,338.79 345.38,338.00 344.85,338.00 C344.32,338.00 344.14,337.58 344.46,337.07 C344.77,336.56 344.53,335.83 343.91,335.44 C342.18,334.38 345.06,332.97 346.95,333.96 C349.10,335.08 358.15,329.81 361.42,325.52 L 364.00 322.13 L 359.56 318.50 C356.99,316.39 354.87,313.69 354.51,312.07 C354.18,310.53 353.02,308.33 351.95,307.18 C350.88,306.03 350.00,304.68 350.00,304.20 C350.00,303.71 349.10,302.50 348.00,301.50 C346.87,300.47 346.00,300.19 346.00,300.85 C346.00,301.48 345.39,302.00 344.63,302.00 C343.87,302.00 342.37,304.54 341.24,307.75 C338.70,314.97 337.69,320.31 339.02,319.49 C339.57,319.14 340.00,320.13 340.00,321.77 C340.00,323.83 340.72,325.05 342.50,326.00 C344.23,326.92 345.00,328.18 345.00,330.06 C345.00,333.02 342.96,334.44 339.25,334.08 C337.19,333.88 337.00,334.26 337.06,338.68 C337.15,346.65 338.30,351.28 340.25,351.57 C341.21,351.71 342.00,351.39 342.00,350.85 C342.00,350.32 342.38,350.12 342.84,350.40 C343.76,350.97 341.01,361.00 339.93,361.00 C339.05,361.00 333.36,344.88 331.82,338.00 C329.70,328.52 330.18,309.73 332.77,300.71 C339.16,278.53 352.71,263.12 375.05,252.63 C385.78,247.59 396.98,244.57 411.50,242.83 C425.23,241.17 461.59,241.28 484.50,243.03 C507.78,244.81 561.94,244.89 577.82,243.16 C584.05,242.48 592.83,241.27 597.32,240.47 C613.05,237.66 613.90,237.80 603.50,241.51 C571.40,252.94 552.41,263.51 536.67,278.74 C506.36,308.05 493.39,339.78 481.00,415.00 C478.47,430.33 477.34,433.76 474.50,434.65 C473.40,434.99 472.22,435.71 471.87,436.24 C470.92,437.73 467.18,436.14 466.48,433.95 C465.69,431.45 463.53,431.47 461.00,434.00 C458.60,436.40 456.69,436.54 454.96,434.46 C454.00,433.29 453.97,432.63 454.84,431.76 C455.48,431.12 456.00,429.57 456.00,428.32 C456.00,425.61 452.25,424.26 449.22,425.88 C448.15,426.46 446.96,426.62 446.58,426.25 C446.20,425.87 446.18,426.32 446.54,427.24 C447.04,428.54 446.65,428.90 444.84,428.82 C439.64,428.59 439.19,428.91 438.51,433.25 C437.09,442.40 432.71,465.41 428.88,483.89 C418.78,532.64 408.10,556.85 389.04,574.22 C373.62,588.28 348.62,595.06 330.50,590.11 Z" fill="rgb(180,64,49)"/>
<path d="M 343.63 720.43 C332.18,718.65 319.79,714.86 308.50,709.69 C298.86,705.27 287.37,698.38 285.13,695.66 C283.91,694.19 284.05,694.00 286.42,694.00 C287.88,694.00 290.81,694.88 292.93,695.96 C295.04,697.04 300.08,698.68 304.12,699.60 C308.17,700.52 314.41,702.44 317.99,703.88 C324.16,706.35 325.48,706.49 343.50,706.59 C364.76,706.70 378.77,705.67 384.00,703.61 C387.24,702.34 391.65,701.20 407.50,697.56 C415.94,695.62 422.71,692.49 427.13,688.50 C431.22,684.81 440.40,679.73 441.32,680.65 C442.19,681.52 452.71,675.18 454.79,672.54 C455.80,671.25 461.33,666.15 467.07,661.21 C490.36,641.14 506.50,620.90 521.85,592.50 C542.63,554.06 555.05,510.42 565.53,439.00 C573.48,384.79 579.41,360.15 589.23,340.50 C600.35,318.26 614.36,303.32 632.75,294.10 C645.90,287.51 653.21,285.66 672.50,284.03 C691.46,282.43 691.39,282.40 681.35,287.44 C654.91,300.70 638.55,318.73 625.09,349.42 C617.21,367.38 611.44,391.84 603.47,441.00 C594.67,495.32 585.86,529.54 572.10,562.74 C548.01,620.92 510.35,666.24 462.79,694.31 C425.77,716.15 380.27,726.13 343.63,720.43 ZM 277.00 689.50 L 273.61 686.00 L 276.23 686.00 C279.32,686.00 282.00,688.35 282.00,691.07 C282.00,693.84 280.85,693.48 277.00,689.50 ZM 184.03 600.25 C184.10,582.91 187.69,566.41 195.30,548.50 C204.77,526.19 213.86,514.97 228.09,508.02 C245.87,499.33 260.65,495.34 278.50,494.40 C289.56,493.82 290.34,493.89 288.50,495.35 C287.40,496.22 285.31,496.95 283.86,496.97 C280.15,497.01 265.03,501.51 256.73,505.05 C246.75,509.30 231.67,519.73 222.34,528.85 C213.68,537.31 202.87,552.59 198.10,563.12 C192.98,574.42 188.25,590.82 186.53,603.25 C185.51,610.65 184.00,608.84 184.03,600.25 ZM 336.50 591.58 C335.95,591.36 334.15,590.86 332.50,590.48 C329.80,589.85 329.70,589.71 331.54,589.00 C332.66,588.57 335.81,587.93 338.54,587.58 C349.90,586.11 355.44,584.73 361.79,581.81 C365.48,580.11 368.73,578.44 369.00,578.11 C369.27,577.77 371.52,576.16 374.00,574.53 C380.30,570.38 388.00,563.99 388.00,562.92 C388.00,562.42 389.58,559.95 391.51,557.42 C393.43,554.90 394.81,552.50 394.55,552.09 C394.30,551.68 395.38,549.79 396.94,547.88 C400.61,543.43 403.35,538.53 404.97,533.50 C405.68,531.30 406.71,528.94 407.25,528.26 C407.79,527.57 407.98,526.04 407.67,524.84 C407.36,523.65 407.52,521.90 408.03,520.95 C411.48,514.50 419.61,475.53 432.00,406.00 C439.36,364.69 441.85,355.45 450.14,338.62 C455.15,328.44 458.22,324.30 468.22,314.26 L 476.42 306.03 L 469.89 308.39 C466.30,309.70 460.92,311.09 457.93,311.48 C454.94,311.88 449.80,312.87 446.50,313.70 C442.45,314.71 431.58,315.46 413.00,316.00 C389.32,316.70 384.53,317.11 378.50,318.94 C365.93,322.77 364.74,322.74 359.63,318.56 C357.00,316.40 354.87,313.70 354.51,312.07 C354.18,310.53 353.02,308.33 351.95,307.18 C350.88,306.03 350.00,304.68 350.00,304.20 C350.00,303.71 349.10,302.50 348.00,301.50 C346.87,300.47 346.00,300.19 346.00,300.85 C346.00,301.48 345.39,302.00 344.63,302.00 C343.87,302.00 342.37,304.54 341.24,307.75 C338.70,314.97 337.69,320.31 339.02,319.49 C339.57,319.14 340.00,320.13 340.00,321.77 C340.00,323.83 340.72,325.05 342.50,326.00 C344.23,326.92 345.00,328.18 345.00,330.06 C345.00,333.05 342.95,334.44 339.12,334.06 L 336.75 333.82 L 337.36 344.66 L 337.98 355.50 L 335.92 351.00 C330.11,338.30 328.64,314.97 332.77,300.71 C339.18,278.50 352.71,263.11 375.05,252.63 C385.78,247.59 396.98,244.57 411.50,242.83 C425.23,241.17 461.59,241.28 484.50,243.03 C507.78,244.81 561.94,244.89 577.82,243.16 C584.05,242.48 592.83,241.27 597.32,240.47 C613.05,237.66 613.90,237.80 603.50,241.51 C564.86,255.27 545.25,267.59 525.63,290.44 C504.79,314.73 491.55,350.13 482.51,405.75 C482.13,408.09 481.41,410.00 480.91,410.00 C480.41,410.00 480.00,410.80 480.00,411.78 C480.00,412.76 479.35,414.49 478.55,415.63 C476.26,418.89 474.03,426.13 474.01,430.32 C474.01,432.42 473.33,434.82 472.50,435.64 C470.63,437.51 467.32,436.58 466.48,433.95 C465.69,431.45 463.53,431.47 461.00,434.00 C458.60,436.40 456.69,436.54 454.96,434.46 C454.00,433.29 453.97,432.63 454.84,431.76 C455.48,431.12 456.00,429.57 456.00,428.32 C456.00,425.61 452.25,424.26 449.22,425.88 C448.15,426.46 446.96,426.62 446.58,426.25 C446.20,425.87 446.18,426.32 446.54,427.24 C447.04,428.54 446.65,428.90 444.84,428.82 C439.64,428.59 439.19,428.91 438.51,433.25 C434.98,455.93 425.68,500.48 421.41,515.17 C408.94,558.09 390.98,580.46 362.15,588.97 C355.55,590.92 339.04,592.60 336.50,591.58 ZM 344.24 337.45 C344.65,337.03 344.48,336.08 343.87,335.34 C343.26,334.60 343.15,333.96 343.63,333.92 C344.11,333.87 345.47,333.72 346.65,333.59 C348.45,333.39 348.68,333.70 348.04,335.42 C347.62,336.57 346.43,337.66 345.39,337.86 C344.35,338.06 343.83,337.87 344.24,337.45 Z" fill="rgb(209,62,34)"/>
<path d="M 429.50 686.41 C430.60,685.55 433.75,683.69 436.50,682.29 C440.91,680.04 441.29,679.98 439.69,681.76 C438.70,682.87 435.55,684.73 432.69,685.88 C429.02,687.37 428.09,687.52 429.50,686.41 ZM 474.95 679.43 C474.23,678.57 472.38,677.21 470.82,676.41 C469.27,675.61 468.00,674.33 468.00,673.58 C468.00,671.96 465.27,670.72 463.76,671.65 C463.13,672.04 462.98,671.84 463.40,671.16 C463.79,670.53 464.29,669.07 464.51,667.93 C464.89,665.96 464.70,665.99 460.21,668.56 C454.68,671.74 454.61,671.81 467.50,660.77 C490.24,641.28 506.56,620.78 521.85,592.50 C542.63,554.06 555.05,510.42 565.53,439.00 C573.48,384.79 579.41,360.15 589.23,340.50 C600.35,318.26 614.36,303.32 632.75,294.10 C645.90,287.51 653.21,285.66 672.50,284.03 C691.46,282.43 691.39,282.40 681.35,287.44 C654.91,300.70 638.55,318.73 625.09,349.42 C617.21,367.38 611.44,391.84 603.47,441.00 C594.67,495.32 585.86,529.54 572.10,562.74 C560.96,589.65 545.44,616.13 528.29,637.51 C519.00,649.09 501.65,665.52 499.87,664.42 C499.16,663.98 498.96,664.12 499.35,664.77 C500.06,665.90 493.14,672.20 491.97,671.48 C491.60,671.25 490.21,672.29 488.90,673.78 L 486.50 676.50 L 489.50 674.00 L 492.50 671.50 L 490.10 674.22 C488.79,675.71 487.35,676.72 486.92,676.45 C486.48,676.18 484.50,676.88 482.50,678.00 C480.50,679.12 478.38,679.74 477.78,679.36 C477.13,678.96 476.98,679.15 477.40,679.85 C478.47,681.58 476.44,681.24 474.95,679.43 ZM 194.74 555.74 C193.32,553.99 193.27,553.29 194.40,550.60 C198.85,540.05 200.33,537.00 201.04,537.00 C201.48,537.00 202.52,536.74 203.36,536.42 C204.41,536.01 205.49,537.04 206.88,539.76 C208.58,543.09 208.69,544.04 207.62,546.09 C205.23,550.67 200.97,557.00 200.24,557.08 C199.83,557.12 198.80,557.29 197.94,557.46 C197.09,557.63 195.65,556.85 194.74,555.74 ZM 411.41 526.48 C411.06,525.10 411.01,522.74 411.29,521.25 C411.77,518.75 411.70,518.68 410.44,520.41 C409.69,521.44 408.89,522.78 408.67,523.39 C408.45,524.00 407.95,524.20 407.56,523.84 C407.16,523.47 407.31,522.28 407.90,521.19 C411.48,514.49 419.44,476.47 432.00,406.00 C439.37,364.62 441.84,355.46 450.20,338.50 C456.21,326.29 465.82,314.87 477.50,306.07 C482.23,302.50 484.19,302.08 481.28,305.25 C478.10,308.72 467.26,324.57 464.88,329.24 C462.31,334.27 457.78,345.10 454.51,354.00 C450.50,364.90 442.90,401.31 439.46,426.00 C436.57,446.84 428.76,487.02 423.98,505.68 C421.11,516.88 418.72,522.55 415.11,526.75 C412.66,529.61 412.18,529.57 411.41,526.48 ZM 215.20 522.88 C215.44,519.15 215.21,518.34 214.00,518.70 C209.99,519.91 221.48,511.30 228.47,507.86 C245.71,499.37 260.74,495.33 278.50,494.40 C289.56,493.82 290.34,493.89 288.50,495.35 C287.40,496.22 285.31,496.95 283.86,496.97 C280.18,497.01 265.06,501.50 256.90,504.97 C249.84,507.98 241.45,513.16 229.65,521.79 C223.49,526.30 222.50,526.72 219.71,525.92 C217.50,525.28 216.35,525.39 215.75,526.26 C215.23,527.01 215.01,525.65 215.20,522.88 ZM 335.26 349.50 C331.66,339.85 330.59,333.27 330.56,320.50 C330.54,310.99 330.99,306.89 332.77,300.71 C339.16,278.53 352.71,263.12 375.05,252.63 C385.78,247.59 396.98,244.57 411.50,242.83 C425.23,241.17 461.59,241.28 484.50,243.03 C507.78,244.81 561.94,244.89 577.82,243.16 C584.05,242.48 592.83,241.27 597.32,240.47 C613.05,237.66 613.90,237.80 603.50,241.51 C598.00,243.46 589.07,246.87 583.65,249.07 C578.23,251.27 573.05,252.84 572.15,252.55 C571.24,252.26 566.90,252.96 562.50,254.11 C558.10,255.25 549.33,256.72 543.00,257.37 C536.65,258.02 532.17,258.88 533.00,259.28 C533.83,259.68 533.15,259.77 531.50,259.48 C523.56,258.07 513.84,257.08 507.49,257.04 C503.64,257.02 498.94,256.56 497.06,256.02 C491.74,254.49 439.64,251.80 429.00,252.50 C407.29,253.93 389.53,257.69 378.74,263.13 C370.29,267.39 359.81,275.26 354.56,281.26 C348.27,288.44 338.97,307.23 338.99,312.70 C338.99,315.01 338.56,317.94 338.02,319.20 C337.48,320.47 336.62,325.53 336.11,330.46 C335.37,337.66 335.47,340.15 336.66,343.10 C337.46,345.12 337.99,348.74 337.81,351.14 L 337.50 355.50 L 335.26 349.50 Z" fill="rgb(213,110,70)"/>
<path d="M 474.95 679.43 C474.23,678.57 472.38,677.21 470.82,676.41 C469.27,675.61 468.00,674.33 468.00,673.58 C468.00,671.96 465.27,670.72 463.76,671.65 C463.13,672.04 462.98,671.84 463.40,671.16 C463.79,670.53 464.30,669.05 464.53,667.87 C464.75,666.69 465.96,665.03 467.22,664.17 C469.69,662.48 478.66,654.23 485.94,646.93 C491.57,641.29 502.00,628.43 502.00,627.13 C502.00,626.61 504.16,623.55 506.80,620.34 C511.13,615.07 519.00,602.76 519.00,601.26 C519.00,600.93 519.63,599.95 520.39,599.08 C522.62,596.55 531.65,578.94 533.40,573.71 C534.28,571.08 535.64,567.93 536.42,566.71 C537.20,565.50 539.65,559.08 541.87,552.47 C544.08,545.85 546.59,539.10 547.44,537.47 C548.29,535.83 548.99,533.70 548.99,532.73 C549.00,531.08 550.97,523.26 554.73,510.00 C556.45,503.92 558.75,492.47 559.96,484.00 C560.39,480.98 561.49,476.29 562.41,473.60 C563.33,470.90 564.51,463.93 565.04,458.10 C565.57,452.27 566.26,446.38 566.58,445.00 C566.91,443.62 567.83,438.23 568.65,433.00 C570.65,420.10 571.62,414.16 573.53,403.00 C574.42,397.77 575.51,391.02 575.94,388.00 C576.38,384.98 577.47,380.35 578.37,377.72 C579.27,375.08 580.00,372.16 580.00,371.22 C580.01,369.05 588.62,346.25 590.55,343.29 C591.35,342.07 592.00,340.58 592.00,339.98 C592.00,338.52 598.63,327.72 603.34,321.50 C605.43,318.75 609.74,314.25 612.94,311.50 C616.13,308.75 619.28,305.58 619.93,304.47 C621.34,302.03 637.64,293.55 644.00,291.94 C646.47,291.32 648.97,290.42 649.55,289.95 C650.13,289.47 652.60,288.80 655.05,288.45 C657.50,288.11 662.68,287.20 666.56,286.44 C671.77,285.42 674.62,285.33 677.37,286.09 L 681.11 287.12 L 673.18 291.89 C668.82,294.51 664.15,297.52 662.81,298.58 C650.16,308.55 641.37,318.75 633.47,332.61 C619.76,356.66 613.43,379.56 603.47,441.00 C594.67,495.32 585.86,529.54 572.10,562.74 C560.96,589.65 545.44,616.13 528.29,637.51 C519.00,649.09 501.65,665.52 499.87,664.42 C499.16,663.98 498.96,664.12 499.35,664.77 C500.06,665.90 493.14,672.20 491.97,671.48 C491.60,671.25 490.21,672.29 488.90,673.78 L 486.50 676.50 L 489.50 674.00 L 492.50 671.50 L 490.10 674.22 C488.79,675.71 487.35,676.72 486.92,676.45 C486.48,676.18 484.50,676.88 482.50,678.00 C480.50,679.12 478.38,679.74 477.78,679.36 C477.13,678.96 476.98,679.15 477.40,679.85 C478.47,681.58 476.44,681.24 474.95,679.43 ZM 194.74 555.74 C193.32,553.99 193.27,553.29 194.40,550.60 C198.85,540.05 200.33,537.00 201.04,537.00 C201.48,537.00 202.52,536.74 203.36,536.42 C204.41,536.01 205.49,537.04 206.88,539.76 C208.58,543.09 208.69,544.04 207.62,546.09 C205.23,550.67 200.97,557.00 200.24,557.08 C199.83,557.12 198.80,557.29 197.94,557.46 C197.09,557.63 195.65,556.85 194.74,555.74 ZM 411.44 526.61 C410.65,523.49 411.56,515.88 413.53,509.00 C414.39,505.98 415.47,501.92 415.91,500.00 C416.35,498.08 417.41,494.02 418.25,491.00 C419.09,487.98 420.76,480.10 421.95,473.50 C423.14,466.90 424.54,459.61 425.06,457.31 C425.58,455.00 426.00,451.58 426.00,449.71 C426.00,447.84 427.17,441.17 428.60,434.90 C431.51,422.17 433.25,412.53 435.44,397.00 C436.25,391.23 437.84,383.35 438.96,379.50 C440.08,375.65 441.00,371.63 441.00,370.55 C441.00,367.39 447.10,348.72 449.02,345.99 C450.00,344.61 452.26,340.11 454.05,335.99 C455.84,331.87 458.30,327.60 459.53,326.50 C460.76,325.40 462.06,323.53 462.42,322.33 C462.79,321.14 464.32,319.73 465.84,319.20 C469.33,317.99 475.06,312.32 475.57,309.58 C475.95,307.52 480.65,303.01 482.42,303.00 C482.93,303.00 482.42,304.01 481.28,305.25 C478.10,308.72 467.26,324.57 464.88,329.24 C462.31,334.27 457.78,345.10 454.51,354.00 C450.50,364.90 442.90,401.31 439.46,426.00 C436.57,446.84 428.76,487.02 423.98,505.68 C421.11,516.88 418.72,522.55 415.11,526.75 C412.67,529.59 412.18,529.57 411.44,526.61 ZM 215.02 523.33 C215.00,519.70 215.48,518.80 218.75,516.25 C223.51,512.56 238.67,504.88 246.50,502.21 C253.98,499.65 263.69,498.55 267.00,499.87 C268.38,500.42 268.83,500.91 268.00,500.95 C267.17,501.00 262.88,502.53 258.45,504.35 C250.31,507.71 242.13,512.66 229.65,521.79 C223.49,526.30 222.50,526.72 219.71,525.92 C217.50,525.28 216.38,525.38 215.82,526.26 C215.36,526.98 215.02,525.74 215.02,523.33 ZM 333.61 330.69 C332.15,325.34 331.88,322.12 332.39,315.77 C333.07,307.34 336.35,294.60 338.52,292.00 C339.20,291.17 340.10,289.38 340.52,288.00 C342.48,281.53 350.68,271.48 360.50,263.53 C371.46,254.64 386.26,249.03 408.50,245.32 C421.00,243.24 463.52,243.08 488.00,245.02 C506.29,246.47 554.76,246.75 568.00,245.47 C580.93,244.23 584.98,244.36 586.02,246.03 C587.30,248.10 578.20,252.06 571.00,252.58 C567.97,252.79 563.03,253.71 560.00,254.61 C556.97,255.51 549.33,256.76 543.00,257.40 C536.67,258.03 532.17,258.88 533.00,259.28 C533.83,259.68 533.15,259.77 531.50,259.48 C523.56,258.07 513.84,257.08 507.49,257.04 C503.64,257.02 498.94,256.56 497.06,256.02 C491.74,254.49 439.64,251.80 429.00,252.50 C407.29,253.93 389.53,257.69 378.74,263.13 C370.29,267.39 359.81,275.26 354.56,281.26 C348.27,288.44 338.97,307.23 338.99,312.70 C338.99,315.01 338.55,317.94 338.00,319.20 C337.45,320.47 336.66,325.10 336.24,329.50 L 335.48 337.50 L 333.61 330.69 Z" fill="rgb(236,99,38)"/>
</g>
</svg>